<svg width="426" height="87" viewBox="0 0 426 87" fill="none" xmlns="http://www.w3.org/2000/svg">
    <g id="info">
        <g id="info-2">
            <g id="&#208;&#152;&#208;&#156;&#208;&#149;&#208;&#157;&#208;&#152; &#208;&#156;. &#208;&#147;&#208;&#190;&#209;&#128;&#209;&#140;&#208;&#186;&#208;&#190;&#208;&#179;&#208;&#190;">
                <path d="M219.2 80.5227C219.2 80.6439 219.215 80.7803 219.246 80.9318C219.292 81.0682 219.346 81.197 219.407 81.3182C219.468 81.4394 219.545 81.5455 219.637 81.6364C219.744 81.7273 219.844 81.7727 219.936 81.7727V82H216.992V81.7727C217.099 81.7727 217.199 81.7349 217.291 81.6591C217.383 81.5682 217.46 81.4621 217.521 81.3409C217.582 81.2045 217.628 81.0682 217.659 80.9318C217.69 80.7803 217.705 80.6439 217.705 80.5227V75.0682L212.231 80.3636V80.5227C212.231 80.6439 212.246 80.7803 212.277 80.9318C212.308 81.0682 212.354 81.197 212.415 81.3182C212.476 81.4394 212.545 81.5455 212.622 81.6364C212.714 81.7273 212.814 81.7727 212.921 81.7727V82H210V81.7727C210.107 81.7727 210.207 81.7349 210.299 81.6591C210.391 81.5682 210.468 81.4621 210.529 81.3409C210.59 81.2045 210.636 81.0682 210.667 80.9318C210.698 80.7803 210.713 80.6439 210.713 80.5227V73.8636C210.713 73.7576 210.698 73.6364 210.667 73.5C210.636 73.3636 210.59 73.2348 210.529 73.1136C210.468 72.9924 210.391 72.8939 210.299 72.8182C210.207 72.7273 210.107 72.6818 210 72.6818V72.4545H212.921V72.6818C212.798 72.6818 212.691 72.7273 212.599 72.8182C212.522 72.8939 212.453 72.9924 212.392 73.1136C212.346 73.2348 212.308 73.3636 212.277 73.5C212.246 73.6364 212.231 73.7576 212.231 73.8636V79.2955L217.705 74V73.8636C217.705 73.7576 217.69 73.6364 217.659 73.5C217.628 73.3636 217.582 73.2348 217.521 73.1136C217.46 72.9924 217.383 72.8939 217.291 72.8182C217.199 72.7273 217.099 72.6818 216.992 72.6818V72.4545H219.936V72.6818C219.813 72.6818 219.698 72.7273 219.591 72.8182C219.499 72.8939 219.422 72.9924 219.361 73.1136C219.315 73.2348 219.277 73.3636 219.246 73.5C219.215 73.6364 219.2 73.7576 219.2 73.8636V80.5227Z" fill="#F7F7F7"/>
                <path d="M232.685 80.5227C232.685 80.6439 232.7 80.7803 232.731 80.9318C232.761 81.0682 232.807 81.197 232.869 81.3182C232.945 81.4394 233.03 81.5455 233.122 81.6364C233.214 81.7273 233.321 81.7727 233.444 81.7727V82H230.454V81.7727C230.576 81.7727 230.684 81.7349 230.776 81.6591C230.868 81.5682 230.944 81.4621 231.006 81.3409C231.067 81.2045 231.113 81.0682 231.144 80.9318C231.174 80.7803 231.19 80.6439 231.19 80.5227V74.3864L227.349 82.2045L223.669 74.8409V80.5227C223.669 80.6439 223.684 80.7803 223.715 80.9318C223.745 81.0682 223.791 81.197 223.853 81.3182C223.914 81.4394 223.991 81.5455 224.083 81.6364C224.175 81.7273 224.282 81.7727 224.405 81.7727V82H222.174V81.7727C222.296 81.7727 222.404 81.7273 222.496 81.6364C222.588 81.5455 222.657 81.4394 222.703 81.3182C222.764 81.197 222.81 81.0682 222.841 80.9318C222.871 80.7803 222.887 80.6439 222.887 80.5227V73.8636C222.887 73.5909 222.848 73.3258 222.772 73.0682C222.71 72.8106 222.511 72.6818 222.174 72.6818V72.4545H224.221L227.74 79.5682L231.259 72.4545H233.444V72.6818C233.214 72.6818 233.03 72.8258 232.892 73.1136C232.754 73.3864 232.685 73.6364 232.685 73.8636V80.5227Z" fill="#F7F7F7"/>
                <path d="M236.959 77.4091C237.021 77.9394 237.151 78.447 237.35 78.9318C237.55 79.4015 237.81 79.8182 238.132 80.1818C238.47 80.5455 238.876 80.8409 239.351 81.0682C239.827 81.2803 240.379 81.3864 241.007 81.3864C241.345 81.3864 241.697 81.3409 242.065 81.25C242.449 81.1439 242.801 81 243.123 80.8182C243.445 80.6364 243.729 80.4167 243.974 80.1591C244.235 79.8864 244.411 79.5833 244.503 79.25H244.71V80.9545C244.618 80.9545 244.511 80.9848 244.388 81.0455C244.281 81.1061 244.151 81.1818 243.997 81.2727C243.691 81.4545 243.277 81.6515 242.755 81.8636C242.234 82.0606 241.544 82.1591 240.685 82.1591C239.995 82.1591 239.336 82.0606 238.707 81.8636C238.094 81.6667 237.55 81.3636 237.074 80.9545C236.599 80.5455 236.216 80.0227 235.924 79.3864C235.648 78.75 235.51 77.9924 235.51 77.1136C235.51 76.553 235.602 75.9848 235.786 75.4091C235.986 74.8333 236.277 74.3182 236.66 73.8636C237.059 73.3939 237.565 73.0152 238.178 72.7273C238.792 72.4394 239.528 72.2955 240.386 72.2955C241.153 72.2955 241.82 72.4242 242.387 72.6818C242.97 72.9394 243.445 73.2955 243.813 73.75C244.197 74.2045 244.48 74.7424 244.664 75.3636C244.848 75.9848 244.94 76.6667 244.94 77.4091H236.959ZM240.294 73.0455C239.758 73.0455 239.29 73.1515 238.891 73.3636C238.508 73.5758 238.178 73.8485 237.902 74.1818C237.626 74.5152 237.412 74.8939 237.258 75.3182C237.105 75.7424 237.005 76.1667 236.959 76.5909H243.514C243.499 76.1515 243.415 75.7197 243.261 75.2955C243.123 74.8712 242.924 74.4924 242.663 74.1591C242.403 73.8258 242.073 73.5606 241.674 73.3636C241.276 73.1515 240.816 73.0455 240.294 73.0455Z" fill="#F7F7F7"/>
                <path d="M249.111 80.5227C249.111 80.6439 249.127 80.7803 249.157 80.9318C249.188 81.0682 249.234 81.197 249.295 81.3182C249.357 81.4394 249.426 81.5455 249.502 81.6364C249.594 81.7273 249.694 81.7727 249.801 81.7727V82H246.903V81.7727C247.011 81.7727 247.103 81.7349 247.179 81.6591C247.271 81.5682 247.348 81.4621 247.409 81.3409C247.471 81.2045 247.517 81.0682 247.547 80.9318C247.578 80.7803 247.593 80.6439 247.593 80.5227V73.8636C247.593 73.7576 247.578 73.6364 247.547 73.5C247.517 73.3636 247.471 73.2348 247.409 73.1136C247.348 72.9924 247.271 72.8939 247.179 72.8182C247.103 72.7273 247.011 72.6818 246.903 72.6818V72.4545H249.801V72.6818C249.679 72.6818 249.571 72.7273 249.479 72.8182C249.403 72.8939 249.334 72.9924 249.272 73.1136C249.226 73.2348 249.188 73.3636 249.157 73.5C249.127 73.6364 249.111 73.7576 249.111 73.8636V76.6136H254.355V73.8636C254.355 73.7576 254.34 73.6364 254.309 73.5C254.279 73.3636 254.233 73.2348 254.171 73.1136C254.125 72.9924 254.056 72.8939 253.964 72.8182C253.888 72.7273 253.788 72.6818 253.665 72.6818V72.4545H256.563V72.6818C256.441 72.6818 256.333 72.7273 256.241 72.8182C256.165 72.8939 256.096 72.9924 256.034 73.1136C255.973 73.2348 255.927 73.3636 255.896 73.5C255.881 73.6364 255.873 73.7576 255.873 73.8636V80.5227C255.873 80.6439 255.889 80.7803 255.919 80.9318C255.95 81.0682 255.996 81.197 256.057 81.3182C256.119 81.4394 256.188 81.5455 256.264 81.6364C256.356 81.7273 256.456 81.7727 256.563 81.7727V82H253.665V81.7727C253.773 81.7727 253.865 81.7349 253.941 81.6591C254.033 81.5682 254.11 81.4621 254.171 81.3409C254.233 81.2045 254.279 81.0682 254.309 80.9318C254.34 80.7803 254.355 80.6439 254.355 80.5227V77.3636H249.111V80.5227Z" fill="#F7F7F7"/>
                <path d="M268.007 80.5227C268.007 80.6439 268.022 80.7803 268.053 80.9318C268.099 81.0682 268.153 81.197 268.214 81.3182C268.275 81.4394 268.352 81.5455 268.444 81.6364C268.551 81.7273 268.651 81.7727 268.743 81.7727V82H265.799V81.7727C265.906 81.7727 266.006 81.7349 266.098 81.6591C266.19 81.5682 266.267 81.4621 266.328 81.3409C266.389 81.2045 266.435 81.0682 266.466 80.9318C266.497 80.7803 266.512 80.6439 266.512 80.5227V75.0682L261.038 80.3636V80.5227C261.038 80.6439 261.053 80.7803 261.084 80.9318C261.115 81.0682 261.161 81.197 261.222 81.3182C261.283 81.4394 261.352 81.5455 261.429 81.6364C261.521 81.7273 261.621 81.7727 261.728 81.7727V82H258.807V81.7727C258.914 81.7727 259.014 81.7349 259.106 81.6591C259.198 81.5682 259.275 81.4621 259.336 81.3409C259.397 81.2045 259.443 81.0682 259.474 80.9318C259.505 80.7803 259.52 80.6439 259.52 80.5227V73.8636C259.52 73.7576 259.505 73.6364 259.474 73.5C259.443 73.3636 259.397 73.2348 259.336 73.1136C259.275 72.9924 259.198 72.8939 259.106 72.8182C259.014 72.7273 258.914 72.6818 258.807 72.6818V72.4545H261.728V72.6818C261.605 72.6818 261.498 72.7273 261.406 72.8182C261.329 72.8939 261.26 72.9924 261.199 73.1136C261.153 73.2348 261.115 73.3636 261.084 73.5C261.053 73.6364 261.038 73.7576 261.038 73.8636V79.2955L266.512 74V73.8636C266.512 73.7576 266.497 73.6364 266.466 73.5C266.435 73.3636 266.389 73.2348 266.328 73.1136C266.267 72.9924 266.19 72.8939 266.098 72.8182C266.006 72.7273 265.906 72.6818 265.799 72.6818V72.4545H268.743V72.6818C268.62 72.6818 268.505 72.7273 268.398 72.8182C268.306 72.8939 268.229 72.9924 268.168 73.1136C268.122 73.2348 268.084 73.3636 268.053 73.5C268.022 73.6364 268.007 73.7576 268.007 73.8636V80.5227Z" fill="#F7F7F7"/>
                <path d="M289.306 81.7727H289.421C289.528 81.7727 289.628 81.7273 289.72 81.6364C289.812 81.5455 289.889 81.4394 289.95 81.3182C290.027 81.197 290.08 81.0682 290.111 80.9318C290.142 80.7803 290.157 80.6439 290.157 80.5227V68.5682L284.223 82.25L278.588 69.2727V80.5227C278.588 80.6439 278.604 80.7803 278.634 80.9318C278.665 81.0682 278.711 81.197 278.772 81.3182C278.849 81.4394 278.933 81.5455 279.025 81.6364C279.117 81.7273 279.225 81.7727 279.347 81.7727H279.462V82H276.955V81.7727H277.07C277.178 81.7727 277.277 81.7273 277.369 81.6364C277.461 81.5455 277.538 81.4394 277.599 81.3182C277.661 81.197 277.707 81.0682 277.737 80.9318C277.768 80.7803 277.783 80.6439 277.783 80.5227V68.4091C277.783 68.303 277.768 68.1818 277.737 68.0455C277.707 67.9091 277.661 67.7803 277.599 67.6591C277.538 67.5379 277.461 67.4394 277.369 67.3636C277.277 67.2727 277.178 67.2273 277.07 67.2273H276.955V67H279.301L284.637 79.4318L289.973 67H292.572V67.2273H292.457C292.334 67.2273 292.227 67.2727 292.135 67.3636C292.043 67.4394 291.959 67.5379 291.882 67.6591C291.821 67.7803 291.775 67.9091 291.744 68.0455C291.713 68.1818 291.698 68.303 291.698 68.4091V80.5227C291.698 80.6439 291.713 80.7803 291.744 80.9318C291.775 81.0682 291.821 81.197 291.882 81.3182C291.959 81.4394 292.043 81.5455 292.135 81.6364C292.227 81.7273 292.334 81.7727 292.457 81.7727H292.572V82H289.306V81.7727Z" fill="#F7F7F7"/>
                <path d="M294.972 81.0227C294.972 80.7197 295.072 80.4621 295.271 80.25C295.486 80.0379 295.746 79.9318 296.053 79.9318C296.36 79.9318 296.62 80.0379 296.835 80.25C297.05 80.4621 297.157 80.7197 297.157 81.0227C297.157 81.3258 297.05 81.5833 296.835 81.7955C296.62 81.9924 296.36 82.0909 296.053 82.0909C295.746 82.0909 295.486 81.9924 295.271 81.7955C295.072 81.5833 294.972 81.3258 294.972 81.0227Z" fill="#F7F7F7"/>
                <path d="M308.609 81.7727H308.724V82H305.412V81.7727H305.527C305.65 81.7727 305.757 81.7349 305.849 81.6591C305.941 81.5682 306.018 81.4621 306.079 81.3409C306.156 81.2197 306.21 81.0909 306.24 80.9545C306.271 80.8182 306.286 80.6894 306.286 80.5682V68.4091C306.286 68.303 306.271 68.1818 306.24 68.0455C306.21 67.9091 306.156 67.7803 306.079 67.6591C306.018 67.5379 305.941 67.4394 305.849 67.3636C305.757 67.2727 305.65 67.2273 305.527 67.2273H305.412V67H314.267V69.4091H314.037C314.037 68.8636 313.915 68.4621 313.669 68.2045C313.439 67.9318 313.071 67.7955 312.565 67.7955H307.85V80.5682C307.85 80.6894 307.866 80.8182 307.896 80.9545C307.927 81.0909 307.973 81.2197 308.034 81.3409C308.111 81.4621 308.195 81.5682 308.287 81.6591C308.379 81.7349 308.487 81.7727 308.609 81.7727Z" fill="#F7F7F7"/>
                <path d="M317.52 82.1591C316.753 82.1591 316.063 82.0379 315.45 81.7955C314.836 81.5379 314.307 81.197 313.863 80.7727C313.433 80.3333 313.096 79.8182 312.851 79.2273C312.621 78.6364 312.506 77.9924 312.506 77.2955C312.506 76.553 312.636 75.8788 312.897 75.2727C313.157 74.6515 313.518 74.1212 313.978 73.6818C314.438 73.2424 314.982 72.9015 315.611 72.6591C316.239 72.4167 316.922 72.2955 317.658 72.2955C318.394 72.2955 319.068 72.4167 319.682 72.6591C320.295 72.8864 320.824 73.2121 321.269 73.6364C321.713 74.0606 322.058 74.5682 322.304 75.1591C322.549 75.7348 322.672 76.3712 322.672 77.0682C322.672 77.7197 322.557 78.3561 322.327 78.9773C322.112 79.5833 321.782 80.1212 321.338 80.5909C320.908 81.0606 320.372 81.4394 319.728 81.7273C319.099 82.0152 318.363 82.1591 317.52 82.1591ZM317.382 73.0455C316.83 73.0758 316.339 73.2121 315.91 73.4545C315.496 73.6818 315.143 73.9848 314.852 74.3636C314.576 74.7273 314.361 75.1439 314.208 75.6136C314.07 76.0833 314.001 76.5606 314.001 77.0455C314.001 77.6061 314.085 78.1515 314.254 78.6818C314.438 79.197 314.691 79.6591 315.013 80.0682C315.35 80.4773 315.749 80.803 316.209 81.0455C316.669 81.2879 317.182 81.4091 317.75 81.4091C318.317 81.4091 318.815 81.2879 319.245 81.0455C319.689 80.803 320.057 80.4924 320.349 80.1136C320.64 79.7197 320.855 79.2803 320.993 78.7955C321.146 78.3106 321.223 77.8258 321.223 77.3409C321.223 76.8409 321.146 76.3409 320.993 75.8409C320.839 75.3258 320.602 74.8636 320.28 74.4545C319.958 74.0303 319.551 73.6894 319.061 73.4318C318.585 73.1742 318.026 73.0455 317.382 73.0455Z" fill="#F7F7F7"/>
                <path d="M328.28 72.2955C329.108 72.2955 329.821 72.4394 330.419 72.7273C331.032 73 331.538 73.3636 331.937 73.8182C332.351 74.2727 332.658 74.7955 332.857 75.3864C333.056 75.9773 333.156 76.5833 333.156 77.2045C333.156 77.8106 333.056 78.4091 332.857 79C332.673 79.5909 332.382 80.1212 331.983 80.5909C331.6 81.0606 331.117 81.4394 330.534 81.7273C329.951 82.0152 329.261 82.1591 328.464 82.1591C327.989 82.1591 327.498 82.0379 326.992 81.7955C326.501 81.5379 326.057 81.2197 325.658 80.8409V85.5227C325.658 85.6439 325.673 85.7727 325.704 85.9091C325.735 86.0606 325.781 86.197 325.842 86.3182C325.919 86.4394 325.995 86.5455 326.072 86.6364C326.164 86.7273 326.271 86.7727 326.394 86.7727V87H323.404V86.7727C323.511 86.7727 323.611 86.7273 323.703 86.6364C323.795 86.5455 323.872 86.4394 323.933 86.3182C324.01 86.197 324.063 86.0606 324.094 85.9091C324.125 85.7727 324.14 85.6439 324.14 85.5227V73.7955C324.14 73.6591 324.132 73.5303 324.117 73.4091C324.117 73.2727 324.094 73.1591 324.048 73.0682C324.002 72.9621 323.925 72.8788 323.818 72.8182C323.726 72.7424 323.588 72.697 323.404 72.6818V72.4545H325.658V73.4545C325.965 73.0909 326.333 72.8106 326.762 72.6136C327.207 72.4015 327.713 72.2955 328.28 72.2955ZM328.487 81.3864C329.024 81.3712 329.491 81.25 329.89 81.0227C330.289 80.7955 330.618 80.5 330.879 80.1364C331.14 79.7727 331.331 79.3712 331.454 78.9318C331.577 78.4773 331.638 78.0076 331.638 77.5227C331.638 76.9773 331.561 76.4394 331.408 75.9091C331.255 75.3788 331.032 74.9091 330.741 74.5C330.45 74.0758 330.089 73.7348 329.66 73.4773C329.246 73.2045 328.771 73.0682 328.234 73.0682C327.912 73.0682 327.59 73.1288 327.268 73.25C326.961 73.3712 326.685 73.5455 326.44 73.7727C326.21 74 326.018 74.2727 325.865 74.5909C325.727 74.8939 325.658 75.2348 325.658 75.6136V78.5909C325.658 79 325.742 79.3788 325.911 79.7273C326.08 80.0606 326.294 80.3561 326.555 80.6136C326.831 80.8561 327.138 81.0455 327.475 81.1818C327.812 81.3182 328.15 81.3864 328.487 81.3864Z" fill="#F7F7F7"/>
                <path d="M339.266 76.5909C339.971 76.5909 340.584 76.6591 341.106 76.7955C341.642 76.9318 342.079 77.1212 342.417 77.3636C342.769 77.6061 343.03 77.8939 343.199 78.2273C343.367 78.5455 343.452 78.8939 343.452 79.2727C343.452 79.6515 343.367 80.0076 343.199 80.3409C343.03 80.6742 342.762 80.9621 342.394 81.2045C342.041 81.447 341.596 81.6439 341.06 81.7955C340.523 81.9318 339.887 82 339.151 82H335.218V81.7727C335.34 81.7727 335.448 81.7349 335.54 81.6591C335.632 81.5682 335.708 81.4621 335.77 81.3409C335.846 81.2045 335.9 81.0682 335.931 80.9318C335.961 80.7803 335.977 80.6439 335.977 80.5227V73.8636C335.977 73.7576 335.961 73.6364 335.931 73.5C335.9 73.3636 335.846 73.2348 335.77 73.1136C335.708 72.9924 335.632 72.8939 335.54 72.8182C335.448 72.7273 335.34 72.6818 335.218 72.6818V72.4545H338.231V72.6818C338.001 72.6818 337.817 72.8258 337.679 73.1136C337.541 73.3864 337.472 73.6364 337.472 73.8636V76.5909H339.266ZM339.105 81.25C340.117 81.25 340.845 81.0909 341.29 80.7727C341.75 80.4394 341.98 80.0303 341.98 79.5455C341.98 79.2727 341.918 79.0076 341.796 78.75C341.673 78.4773 341.481 78.2424 341.221 78.0455C340.975 77.8333 340.669 77.6667 340.301 77.5455C339.933 77.4091 339.511 77.3409 339.036 77.3409H337.472V81.25H339.105Z" fill="#F7F7F7"/>
                <path d="M352.429 80.2273C352.521 80.3939 352.643 80.5682 352.797 80.75C352.95 80.9318 353.119 81.0985 353.303 81.25C353.502 81.4015 353.701 81.5303 353.901 81.6364C354.1 81.7273 354.292 81.7727 354.476 81.7727V82H353.602C352.896 82 352.352 81.8561 351.969 81.5682C351.585 81.2803 351.286 80.9394 351.072 80.5455L349.991 78.5227C349.822 78.2045 349.538 77.9318 349.14 77.7045C348.741 77.4621 348.319 77.3409 347.875 77.3409V80.5682C347.875 80.6894 347.882 80.8182 347.898 80.9545C347.928 81.0909 347.974 81.2197 348.036 81.3409C348.097 81.4621 348.174 81.5682 348.266 81.6591C348.358 81.7349 348.465 81.7727 348.588 81.7727V82H345.621V81.7727C345.728 81.7727 345.828 81.7349 345.92 81.6591C346.027 81.5682 346.112 81.4621 346.173 81.3409C346.234 81.2197 346.28 81.0909 346.311 80.9545C346.342 80.8182 346.357 80.6894 346.357 80.5682V73.8864C346.357 73.7803 346.342 73.6591 346.311 73.5227C346.28 73.3712 346.234 73.2348 346.173 73.1136C346.127 72.9924 346.058 72.8939 345.966 72.8182C345.874 72.7273 345.759 72.6818 345.621 72.6818V72.4545H348.565V72.6818C348.457 72.6818 348.358 72.7273 348.266 72.8182C348.189 72.8939 348.12 72.9924 348.059 73.1136C347.997 73.2348 347.951 73.3712 347.921 73.5227C347.89 73.6591 347.875 73.7803 347.875 73.8864V76.2273C348.534 75.6515 349.186 75.0985 349.83 74.5682C350.474 74.0227 351.125 73.4621 351.785 72.8864C351.785 72.8712 351.792 72.8561 351.808 72.8409C351.823 72.8258 351.831 72.8106 351.831 72.7955C351.831 72.7197 351.792 72.6818 351.716 72.6818V72.4545H353.717V72.6818C353.64 72.6818 353.548 72.7045 353.441 72.75C353.333 72.7955 353.226 72.8485 353.119 72.9091C352.996 72.9697 352.873 73.0455 352.751 73.1364C352.061 73.7121 351.371 74.303 350.681 74.9091C349.991 75.5 349.301 76.0833 348.611 76.6591C349.27 76.6591 349.807 76.7803 350.221 77.0227C350.65 77.2652 351.01 77.6515 351.302 78.1818L352.429 80.2273Z" fill="#F7F7F7"/>
                <path d="M359.723 82.1591C358.957 82.1591 358.267 82.0379 357.653 81.7955C357.04 81.5379 356.511 81.197 356.066 80.7727C355.637 80.3333 355.3 79.8182 355.054 79.2273C354.824 78.6364 354.709 77.9924 354.709 77.2955C354.709 76.553 354.84 75.8788 355.1 75.2727C355.361 74.6515 355.721 74.1212 356.181 73.6818C356.641 73.2424 357.186 72.9015 357.814 72.6591C358.443 72.4167 359.125 72.2955 359.861 72.2955C360.597 72.2955 361.272 72.4167 361.885 72.6591C362.499 72.8864 363.028 73.2121 363.472 73.6364C363.917 74.0606 364.262 74.5682 364.507 75.1591C364.753 75.7348 364.875 76.3712 364.875 77.0682C364.875 77.7197 364.76 78.3561 364.53 78.9773C364.316 79.5833 363.986 80.1212 363.541 80.5909C363.112 81.0606 362.575 81.4394 361.931 81.7273C361.303 82.0152 360.567 82.1591 359.723 82.1591ZM359.585 73.0455C359.033 73.0758 358.543 73.2121 358.113 73.4545C357.699 73.6818 357.347 73.9848 357.055 74.3636C356.779 74.7273 356.565 75.1439 356.411 75.6136C356.273 76.0833 356.204 76.5606 356.204 77.0455C356.204 77.6061 356.289 78.1515 356.457 78.6818C356.641 79.197 356.894 79.6591 357.216 80.0682C357.554 80.4773 357.952 80.803 358.412 81.0455C358.872 81.2879 359.386 81.4091 359.953 81.4091C360.521 81.4091 361.019 81.2879 361.448 81.0455C361.893 80.803 362.261 80.4924 362.552 80.1136C362.844 79.7197 363.058 79.2803 363.196 78.7955C363.35 78.3106 363.426 77.8258 363.426 77.3409C363.426 76.8409 363.35 76.3409 363.196 75.8409C363.043 75.3258 362.805 74.8636 362.483 74.4545C362.161 74.0303 361.755 73.6894 361.264 73.4318C360.789 73.1742 360.229 73.0455 359.585 73.0455Z" fill="#F7F7F7"/>
                <path d="M374.062 72.4545V74.8182H373.832C373.832 74.6515 373.794 74.4773 373.717 74.2955C373.656 74.0985 373.556 73.9242 373.418 73.7727C373.28 73.6061 373.112 73.4697 372.912 73.3636C372.728 73.2576 372.514 73.2045 372.268 73.2045H369.209V80.5682C369.209 80.6894 369.225 80.8182 369.255 80.9545C369.301 81.0909 369.355 81.2197 369.416 81.3409C369.493 81.4621 369.577 81.5682 369.669 81.6591C369.761 81.7349 369.869 81.7727 369.991 81.7727V82H366.932V81.7727C367.055 81.7727 367.162 81.7349 367.254 81.6591C367.346 81.5682 367.423 81.4621 367.484 81.3409C367.561 81.2197 367.615 81.0909 367.645 80.9545C367.676 80.8182 367.691 80.6894 367.691 80.5682V73.8636C367.691 73.7576 367.676 73.6364 367.645 73.5C367.615 73.3636 367.561 73.2348 367.484 73.1136C367.423 72.9924 367.346 72.8939 367.254 72.8182C367.162 72.7273 367.055 72.6818 366.932 72.6818V72.4545H374.062Z" fill="#F7F7F7"/>
                <path d="M379.848 82.1591C379.081 82.1591 378.391 82.0379 377.778 81.7955C377.165 81.5379 376.636 81.197 376.191 80.7727C375.762 80.3333 375.424 79.8182 375.179 79.2273C374.949 78.6364 374.834 77.9924 374.834 77.2955C374.834 76.553 374.964 75.8788 375.225 75.2727C375.486 74.6515 375.846 74.1212 376.306 73.6818C376.766 73.2424 377.31 72.9015 377.939 72.6591C378.568 72.4167 379.25 72.2955 379.986 72.2955C380.722 72.2955 381.397 72.4167 382.01 72.6591C382.623 72.8864 383.152 73.2121 383.597 73.6364C384.042 74.0606 384.387 74.5682 384.632 75.1591C384.877 75.7348 385 76.3712 385 77.0682C385 77.7197 384.885 78.3561 384.655 78.9773C384.44 79.5833 384.111 80.1212 383.666 80.5909C383.237 81.0606 382.7 81.4394 382.056 81.7273C381.427 82.0152 380.691 82.1591 379.848 82.1591ZM379.71 73.0455C379.158 73.0758 378.667 73.2121 378.238 73.4545C377.824 73.6818 377.471 73.9848 377.18 74.3636C376.904 74.7273 376.689 75.1439 376.536 75.6136C376.398 76.0833 376.329 76.5606 376.329 77.0455C376.329 77.6061 376.413 78.1515 376.582 78.6818C376.766 79.197 377.019 79.6591 377.341 80.0682C377.678 80.4773 378.077 80.803 378.537 81.0455C378.997 81.2879 379.511 81.4091 380.078 81.4091C380.645 81.4091 381.144 81.2879 381.573 81.0455C382.018 80.803 382.386 80.4924 382.677 80.1136C382.968 79.7197 383.183 79.2803 383.321 78.7955C383.474 78.3106 383.551 77.8258 383.551 77.3409C383.551 76.8409 383.474 76.3409 383.321 75.8409C383.168 75.3258 382.93 74.8636 382.608 74.4545C382.286 74.0303 381.88 73.6894 381.389 73.4318C380.914 73.1742 380.354 73.0455 379.71 73.0455Z" fill="#F7F7F7"/>
            </g>
        </g>
        <g id="info-3">
            <g id="&#208;&#162;&#208;&#149;&#208;&#144;&#208;&#162;&#208;&#160; &#208;&#148;&#208;&#160;&#208;&#144;&#208;&#156;&#208;&#171;">
                <path d="M178.359 56.2941H178.591V56.7647H172.026V56.2941H172.258C172.504 56.2941 172.72 56.2 172.905 56.0118C173.09 55.8235 173.244 55.6039 173.367 55.3529C173.521 55.102 173.629 54.8353 173.691 54.5529C173.752 54.2392 173.783 53.9569 173.783 53.7059V27.4471H168.421C167.928 27.4471 167.496 27.5569 167.126 27.7765C166.757 27.9961 166.448 28.2784 166.202 28.6235C165.955 28.9373 165.77 29.298 165.647 29.7059C165.524 30.0824 165.462 30.4588 165.462 30.8353H165V25.7059H185.756V30.8353H185.293C185.293 30.4588 185.232 30.0824 185.108 29.7059C184.985 29.298 184.8 28.9373 184.554 28.6235C184.307 28.2784 183.999 27.9961 183.629 27.7765C183.259 27.5569 182.828 27.4471 182.335 27.4471H176.88V53.7059C176.88 53.9569 176.911 54.2392 176.973 54.5529C177.034 54.8353 177.127 55.102 177.25 55.3529C177.404 55.6039 177.558 55.8235 177.712 56.0118C177.897 56.2 178.113 56.2941 178.359 56.2941Z" fill="#F7F7F7"/>
                <path d="M188.288 56.2941H188.519C188.765 56.2941 188.981 56.2157 189.166 56.0588C189.351 55.8706 189.505 55.651 189.628 55.4C189.782 55.149 189.89 54.8824 189.952 54.6C190.044 54.3176 190.09 54.051 190.09 53.8V28.6235C190.09 28.4039 190.044 28.1529 189.952 27.8706C189.89 27.5882 189.782 27.3216 189.628 27.0706C189.505 26.8196 189.351 26.6157 189.166 26.4588C188.981 26.2706 188.765 26.1765 188.519 26.1765H188.288V25.7059H206.085V30.0824H205.622C205.561 29.3608 205.283 28.7333 204.79 28.2C204.297 27.6353 203.527 27.3529 202.479 27.3529H193.188V39.2588H200.861C201.57 39.2588 202.155 39.0392 202.618 38.6C203.111 38.1608 203.357 37.6431 203.357 37.0471H203.82V42.9294H203.357C203.357 42.3647 203.126 41.8784 202.664 41.4706C202.202 41.0627 201.601 40.8588 200.861 40.8588H193.188V55.1176H203.311C203.897 55.1176 204.405 54.9765 204.837 54.6941C205.268 54.4118 205.622 54.0824 205.9 53.7059C206.208 53.298 206.424 52.8745 206.547 52.4353C206.701 51.9647 206.778 51.5725 206.778 51.2588H207.24V56.7647H188.288V56.2941Z" fill="#F7F7F7"/>
                <path d="M228.382 56.2941H228.613C229.353 56.2941 229.723 55.949 229.723 55.2588C229.723 55.0078 229.676 54.7412 229.584 54.4588L225.424 43.0235H217.334L213.312 54.2706C213.22 54.5216 213.174 54.7569 213.174 54.9765C213.174 55.3843 213.281 55.7137 213.497 55.9647C213.713 56.1843 213.944 56.2941 214.191 56.2941H214.422V56.7647H209.291V56.2941H209.522C209.922 56.2941 210.308 56.0588 210.677 55.5882C211.078 55.0863 211.402 54.5059 211.648 53.8471L222.234 25.1412L232.589 53.5647C232.804 54.1922 233.097 54.8039 233.467 55.4C233.868 55.9961 234.376 56.2941 234.992 56.2941H235.223V56.7647H228.382V56.2941ZM217.796 41.4235H224.915L221.356 31.5882L217.796 41.4235Z" fill="#F7F7F7"/>
                <path d="M245.397 56.2941H245.628V56.7647H239.064V56.2941H239.295C239.541 56.2941 239.757 56.2 239.942 56.0118C240.127 55.8235 240.281 55.6039 240.404 55.3529C240.558 55.102 240.666 54.8353 240.728 54.5529C240.789 54.2392 240.82 53.9569 240.82 53.7059V27.4471H235.458C234.965 27.4471 234.533 27.5569 234.164 27.7765C233.794 27.9961 233.486 28.2784 233.239 28.6235C232.992 28.9373 232.808 29.298 232.684 29.7059C232.561 30.0824 232.499 30.4588 232.499 30.8353H232.037V25.7059H252.793V30.8353H252.33C252.33 30.4588 252.269 30.0824 252.146 29.7059C252.022 29.298 251.837 28.9373 251.591 28.6235C251.344 28.2784 251.036 27.9961 250.666 27.7765C250.296 27.5569 249.865 27.4471 249.372 27.4471H243.917V53.7059C243.917 53.9569 243.948 54.2392 244.01 54.5529C244.071 54.8353 244.164 55.102 244.287 55.3529C244.441 55.6039 244.595 55.8235 244.749 56.0118C244.934 56.2 245.15 56.2941 245.397 56.2941Z" fill="#F7F7F7"/>
                <path d="M255.278 25.7059H261.843C265.263 25.7059 267.852 26.3804 269.609 27.7294C271.396 29.0471 272.29 30.9294 272.29 33.3765C272.29 34.6941 271.982 35.8706 271.365 36.9059C270.749 37.9412 269.932 38.8196 268.915 39.5412C267.929 40.2314 266.804 40.7647 265.541 41.1412C264.308 41.5176 263.075 41.7059 261.843 41.7059H260.086V53.7059C260.086 53.9569 260.117 54.2392 260.178 54.5529C260.24 54.8353 260.333 55.102 260.456 55.3529C260.61 55.6039 260.764 55.8235 260.918 56.0118C261.103 56.2 261.319 56.2941 261.565 56.2941H261.796V56.7647H255.278V56.2941H255.51C255.725 56.2941 255.926 56.2 256.111 56.0118C256.295 55.8235 256.45 55.6039 256.573 55.3529C256.696 55.102 256.789 54.8353 256.85 54.5529C256.912 54.2392 256.943 53.9569 256.943 53.7059V28.6235C256.943 28.1843 256.819 27.6824 256.573 27.1176C256.326 26.5529 255.972 26.2392 255.51 26.1765H255.278V25.7059ZM260.086 27.3529V40.0588H261.473C262.705 40.0588 263.799 39.8863 264.755 39.5412C265.741 39.1961 266.558 38.7412 267.205 38.1765C267.852 37.6118 268.345 36.9686 268.684 36.2471C269.023 35.5255 269.193 34.7882 269.193 34.0353C269.193 33.1255 269.038 32.2784 268.73 31.4941C268.453 30.6784 267.975 29.9725 267.297 29.3765C266.65 28.749 265.787 28.2627 264.709 27.9176C263.63 27.5412 262.305 27.3529 260.733 27.3529H260.086Z" fill="#F7F7F7"/>
                <path d="M316.663 55.1176V61H316.201C316.17 60.5922 316.062 60.1373 315.877 59.6353C315.692 59.1333 315.43 58.6627 315.091 58.2235C314.783 57.8157 314.413 57.4706 313.982 57.1882C313.55 56.9059 313.073 56.7647 312.549 56.7647H291.239C290.715 56.7647 290.237 56.9059 289.806 57.1882C289.374 57.502 288.989 57.8627 288.65 58.2706C288.342 58.7098 288.08 59.1804 287.864 59.6824C287.679 60.1843 287.571 60.6235 287.54 61H287.078V55.1176H289.112C290.098 55.1176 290.792 54.5373 291.192 53.3765L301.824 25L312.549 53.2353C312.765 53.7059 313.057 54.1451 313.427 54.5529C313.797 54.9294 314.228 55.1176 314.721 55.1176H316.663ZM292.209 55.1176H310.006L301.085 31.7294L292.209 55.1176Z" fill="#F7F7F7"/>
                <path d="M320.374 25.7059H326.939C330.359 25.7059 332.948 26.3804 334.705 27.7294C336.492 29.0471 337.386 30.9294 337.386 33.3765C337.386 34.6941 337.078 35.8706 336.461 36.9059C335.845 37.9412 335.028 38.8196 334.011 39.5412C333.025 40.2314 331.9 40.7647 330.637 41.1412C329.404 41.5176 328.171 41.7059 326.939 41.7059H325.182V53.7059C325.182 53.9569 325.213 54.2392 325.274 54.5529C325.336 54.8353 325.428 55.102 325.552 55.3529C325.706 55.6039 325.86 55.8235 326.014 56.0118C326.199 56.2 326.415 56.2941 326.661 56.2941H326.892V56.7647H320.374V56.2941H320.606C320.821 56.2941 321.022 56.2 321.206 56.0118C321.391 55.8235 321.545 55.6039 321.669 55.3529C321.792 55.102 321.884 54.8353 321.946 54.5529C322.008 54.2392 322.039 53.9569 322.039 53.7059V28.6235C322.039 28.1843 321.915 27.6824 321.669 27.1176C321.422 26.5529 321.068 26.2392 320.606 26.1765H320.374V25.7059ZM325.182 27.3529V40.0588H326.569C327.801 40.0588 328.895 39.8863 329.851 39.5412C330.837 39.1961 331.654 38.7412 332.301 38.1765C332.948 37.6118 333.441 36.9686 333.78 36.2471C334.119 35.5255 334.289 34.7882 334.289 34.0353C334.289 33.1255 334.134 32.2784 333.826 31.4941C333.549 30.6784 333.071 29.9725 332.393 29.3765C331.746 28.749 330.883 28.2627 329.805 27.9176C328.726 27.5412 327.401 27.3529 325.829 27.3529H325.182Z" fill="#F7F7F7"/>
                <path d="M351.983 56.2941H352.214C352.954 56.2941 353.324 55.949 353.324 55.2588C353.324 55.0078 353.277 54.7412 353.185 54.4588L349.025 43.0235H340.935L336.913 54.2706C336.821 54.5216 336.775 54.7569 336.775 54.9765C336.775 55.3843 336.882 55.7137 337.098 55.9647C337.314 56.1843 337.545 56.2941 337.792 56.2941H338.023V56.7647H332.892V56.2941H333.123C333.523 56.2941 333.909 56.0588 334.278 55.5882C334.679 55.0863 335.003 54.5059 335.249 53.8471L345.835 25.1412L356.19 53.5647C356.405 54.1922 356.698 54.8039 357.068 55.4C357.469 55.9961 357.977 56.2941 358.593 56.2941H358.825V56.7647H351.983V56.2941ZM341.397 41.4235H348.516L344.957 31.5882L341.397 41.4235Z" fill="#F7F7F7"/>
                <path d="M386.461 56.2941H386.692C386.908 56.2941 387.108 56.2 387.293 56.0118C387.478 55.8235 387.632 55.6039 387.755 55.3529C387.909 55.102 388.017 54.8353 388.079 54.5529C388.14 54.2392 388.171 53.9569 388.171 53.7059V28.9529L376.245 57.2824L364.919 30.4118V53.7059C364.919 53.9569 364.95 54.2392 365.012 54.5529C365.073 54.8353 365.166 55.102 365.289 55.3529C365.443 55.6039 365.613 55.8235 365.798 56.0118C365.982 56.2 366.198 56.2941 366.445 56.2941H366.676V56.7647H361.637V56.2941H361.868C362.084 56.2941 362.284 56.2 362.469 56.0118C362.654 55.8235 362.808 55.6039 362.931 55.3529C363.055 55.102 363.147 54.8353 363.209 54.5529C363.27 54.2392 363.301 53.9569 363.301 53.7059V28.6235C363.301 28.4039 363.27 28.1529 363.209 27.8706C363.147 27.5882 363.055 27.3216 362.931 27.0706C362.808 26.8196 362.654 26.6157 362.469 26.4588C362.284 26.2706 362.084 26.1765 361.868 26.1765H361.637V25.7059H366.352L377.077 51.4471L387.801 25.7059H393.025V26.1765H392.794C392.547 26.1765 392.331 26.2706 392.146 26.4588C391.962 26.6157 391.792 26.8196 391.638 27.0706C391.515 27.3216 391.422 27.5882 391.361 27.8706C391.299 28.1529 391.268 28.4039 391.268 28.6235V53.7059C391.268 53.9569 391.299 54.2392 391.361 54.5529C391.422 54.8353 391.515 55.102 391.638 55.3529C391.792 55.6039 391.962 55.8235 392.146 56.0118C392.331 56.2 392.547 56.2941 392.794 56.2941H393.025V56.7647H386.461V56.2941Z" fill="#F7F7F7"/>
                <path d="M397.617 56.2941H397.848C398.064 56.2941 398.264 56.2157 398.449 56.0588C398.634 55.8706 398.788 55.651 398.911 55.4C399.035 55.149 399.127 54.8824 399.189 54.6C399.281 54.3176 399.327 54.0667 399.327 53.8471V28.7647C399.327 28.5451 399.297 28.2784 399.235 27.9647C399.173 27.651 399.065 27.3686 398.911 27.1176C398.788 26.8667 398.634 26.6471 398.449 26.4588C398.264 26.2706 398.064 26.1765 397.848 26.1765H397.617V25.7059H404.135V26.1765H403.811C403.38 26.2392 403.041 26.5843 402.794 27.2118C402.548 27.8078 402.425 28.3255 402.425 28.7647V38.8824H405.013C406.431 38.8824 407.818 39.0392 409.174 39.3529C410.56 39.6353 411.778 40.1373 412.826 40.8588C413.904 41.549 414.767 42.4745 415.414 43.6353C416.061 44.7647 416.385 46.1765 416.385 47.8706C416.385 49.251 416.108 50.4902 415.553 51.5882C414.998 52.6863 414.243 53.6275 413.288 54.4118C412.332 55.1647 411.192 55.7451 409.867 56.1529C408.573 56.5608 407.171 56.7647 405.66 56.7647H397.617V56.2941ZM403.118 55.1176C406.693 55.1176 409.251 54.4902 410.792 53.2353C412.363 51.9804 413.149 50.2549 413.149 48.0588C413.149 45.8314 412.363 44.0118 410.792 42.6C409.251 41.1882 406.97 40.4824 403.95 40.4824H402.425V55.1176H403.118ZM419.482 25.7059H426V26.1765H425.63C425.414 26.2078 425.214 26.3176 425.029 26.5059C424.875 26.6941 424.736 26.9137 424.613 27.1647C424.521 27.3843 424.444 27.6353 424.382 27.9176C424.32 28.1686 424.29 28.4039 424.29 28.6235V53.7059C424.29 53.9569 424.32 54.2235 424.382 54.5059C424.444 54.7882 424.536 55.0706 424.659 55.3529C424.783 55.6039 424.921 55.8235 425.075 56.0118C425.26 56.1686 425.461 56.2627 425.676 56.2941H426V56.7647H419.482V56.2941H419.713C419.96 56.2941 420.175 56.2157 420.36 56.0588C420.545 55.8706 420.699 55.651 420.823 55.4C420.946 55.1176 421.038 54.8353 421.1 54.5529C421.162 54.2392 421.192 53.9569 421.192 53.7059V28.6235C421.192 28.4039 421.162 28.1529 421.1 27.8706C421.038 27.5882 420.946 27.3216 420.823 27.0706C420.699 26.8196 420.545 26.6157 420.36 26.4588C420.175 26.2706 419.96 26.1765 419.713 26.1765H419.482V25.7059Z" fill="#F7F7F7"/>
            </g>
        </g>
        <g id="info-1">
            <g id="&#208;&#161;&#208;&#144;&#208;&#156;&#208;&#144;&#208;&#160;&#208;&#161;&#208;&#154;&#208;&#152;&#208;&#153; &#208;&#144;&#208;&#154;&#208;&#144;&#208;&#148;&#208;&#149;&#208;&#156;&#208;&#152;&#208;&#167;&#208;&#149;&#208;&#161;&#208;&#154;&#208;&#152;&#208;&#153;">
                <path d="M178.726 12.0542C178.603 12.0542 178.487 12.0852 178.38 12.1471C178.272 12.1935 178.149 12.2555 178.01 12.3329C177.749 12.4877 177.402 12.6503 176.971 12.8206C176.54 12.9755 176.002 13.0529 175.356 13.0529C174.571 13.0529 173.847 12.929 173.186 12.6813C172.539 12.4181 171.978 12.0619 171.5 11.6129C171.023 11.1484 170.654 10.6142 170.392 10.0103C170.131 9.39097 170 8.72516 170 8.0129C170 7.3471 170.115 6.71226 170.346 6.10839C170.592 5.50452 170.939 4.97032 171.385 4.50581C171.831 4.04129 172.378 3.66968 173.024 3.39097C173.686 3.11226 174.432 2.9729 175.263 2.9729C175.833 2.9729 176.294 3.04258 176.648 3.18194C177.002 3.30581 177.302 3.42968 177.548 3.55355C177.687 3.63097 177.818 3.6929 177.941 3.73935C178.079 3.78581 178.218 3.80903 178.356 3.80903V5.57419H178.126C178.049 5.28 177.91 5.02452 177.71 4.80774C177.51 4.57548 177.279 4.38194 177.018 4.2271C176.756 4.07226 176.471 3.95613 176.163 3.87871C175.856 3.80129 175.556 3.76258 175.263 3.76258C174.632 3.76258 174.078 3.87871 173.601 4.11097C173.124 4.32774 172.732 4.62194 172.424 4.99355C172.116 5.34968 171.885 5.76 171.731 6.22452C171.577 6.68903 171.5 7.16903 171.5 7.66452C171.5 8.23742 171.585 8.80258 171.754 9.36C171.939 9.90194 172.193 10.3897 172.516 10.8232C172.855 11.2568 173.263 11.6052 173.74 11.8684C174.232 12.1316 174.786 12.2632 175.402 12.2632C175.833 12.2632 176.233 12.2013 176.602 12.0774C176.971 11.9535 177.287 11.791 177.548 11.5897C177.826 11.3884 178.041 11.1716 178.195 10.9394C178.364 10.6916 178.464 10.4594 178.495 10.2426H178.726V12.0542Z" fill="#F7F7F7"/>
                <path d="M186.356 12.8903V11.7058L186.241 11.8219C185.856 12.209 185.41 12.511 184.902 12.7277C184.409 12.9445 183.809 13.0529 183.101 13.0529C182.563 13.0529 182.101 12.991 181.716 12.8671C181.332 12.7432 181.016 12.5729 180.77 12.3561C180.524 12.1239 180.339 11.8606 180.216 11.5665C180.108 11.2723 180.054 10.9626 180.054 10.6374C180.054 10.111 180.193 9.64645 180.47 9.24387C180.762 8.84129 181.178 8.48516 181.716 8.17548C182.255 7.86581 182.909 7.5871 183.678 7.33936C184.463 7.07613 185.356 6.82065 186.356 6.5729C186.325 5.96903 186.202 5.48129 185.987 5.10968C185.771 4.73806 185.517 4.45161 185.225 4.25032C184.933 4.03355 184.625 3.89419 184.302 3.83226C183.978 3.75484 183.701 3.71613 183.471 3.71613C183.071 3.71613 182.717 3.77806 182.409 3.90194C182.101 4.01032 181.832 4.16516 181.601 4.36645C181.37 4.55226 181.178 4.76903 181.024 5.01677C180.885 5.26452 180.778 5.51226 180.701 5.76H180.493V3.94839C180.631 3.94839 180.793 3.90194 180.978 3.80903C181.162 3.70064 181.378 3.58452 181.624 3.46064C181.886 3.33677 182.193 3.22839 182.547 3.13548C182.917 3.0271 183.355 2.9729 183.863 2.9729C184.709 2.9729 185.394 3.08129 185.918 3.29806C186.441 3.51484 186.841 3.80129 187.118 4.15742C187.41 4.51355 187.603 4.92387 187.695 5.38839C187.787 5.83742 187.834 6.30194 187.834 6.78194V11.3806C187.834 11.6903 187.91 11.9845 188.064 12.2632C188.218 12.5265 188.426 12.6581 188.688 12.6581V12.8903H186.356ZM186.356 10.6839V7.36258L186.125 7.40903C185.756 7.50194 185.302 7.62581 184.763 7.78064C184.24 7.93548 183.74 8.13677 183.263 8.38452C182.786 8.63226 182.378 8.92645 182.039 9.2671C181.701 9.60774 181.532 10.0026 181.532 10.4516C181.532 10.9471 181.732 11.3574 182.132 11.6826C182.532 12.0077 183.055 12.1703 183.701 12.1703C184.209 12.1703 184.656 12.0619 185.04 11.8452C185.425 11.6129 185.779 11.3187 186.102 10.9626L186.356 10.6839Z" fill="#F7F7F7"/>
                <path d="M201.385 11.3806C201.385 11.5045 201.4 11.6439 201.431 11.7987C201.462 11.9381 201.508 12.0697 201.569 12.1935C201.646 12.3174 201.731 12.4258 201.823 12.5187C201.916 12.6116 202.023 12.6581 202.146 12.6581V12.8903H199.145V12.6581C199.269 12.6581 199.376 12.6194 199.469 12.5419C199.561 12.449 199.638 12.3406 199.699 12.2168C199.761 12.0774 199.807 11.9381 199.838 11.7987C199.869 11.6439 199.884 11.5045 199.884 11.3806V5.10968L196.029 13.0994L192.336 5.57419V11.3806C192.336 11.5045 192.351 11.6439 192.382 11.7987C192.413 11.9381 192.459 12.0697 192.52 12.1935C192.582 12.3174 192.659 12.4258 192.751 12.5187C192.844 12.6116 192.951 12.6581 193.074 12.6581V12.8903H190.835V12.6581C190.958 12.6581 191.066 12.6116 191.158 12.5187C191.251 12.4258 191.32 12.3174 191.366 12.1935C191.428 12.0697 191.474 11.9381 191.505 11.7987C191.535 11.6439 191.551 11.5045 191.551 11.3806V4.57548C191.551 4.29677 191.512 4.02581 191.435 3.76258C191.374 3.49935 191.174 3.36774 190.835 3.36774V3.13548H192.89L196.422 10.4052L199.953 3.13548H202.146V3.36774C201.916 3.36774 201.731 3.51484 201.592 3.80903C201.454 4.08774 201.385 4.34323 201.385 4.57548V11.3806Z" fill="#F7F7F7"/>
                <path d="M210.5 12.8903V11.7058L210.384 11.8219C210 12.209 209.553 12.511 209.045 12.7277C208.553 12.9445 207.953 13.0529 207.245 13.0529C206.706 13.0529 206.245 12.991 205.86 12.8671C205.475 12.7432 205.16 12.5729 204.913 12.3561C204.667 12.1239 204.483 11.8606 204.359 11.5665C204.252 11.2723 204.198 10.9626 204.198 10.6374C204.198 10.111 204.336 9.64645 204.613 9.24387C204.906 8.84129 205.321 8.48516 205.86 8.17548C206.399 7.86581 207.053 7.5871 207.822 7.33936C208.607 7.07613 209.499 6.82065 210.5 6.5729C210.469 5.96903 210.346 5.48129 210.13 5.10968C209.915 4.73806 209.661 4.45161 209.369 4.25032C209.076 4.03355 208.768 3.89419 208.445 3.83226C208.122 3.75484 207.845 3.71613 207.614 3.71613C207.214 3.71613 206.86 3.77806 206.552 3.90194C206.245 4.01032 205.975 4.16516 205.744 4.36645C205.514 4.55226 205.321 4.76903 205.167 5.01677C205.029 5.26452 204.921 5.51226 204.844 5.76H204.636V3.94839C204.775 3.94839 204.937 3.90194 205.121 3.80903C205.306 3.70064 205.521 3.58452 205.768 3.46064C206.029 3.33677 206.337 3.22839 206.691 3.13548C207.06 3.0271 207.499 2.9729 208.007 2.9729C208.853 2.9729 209.538 3.08129 210.061 3.29806C210.584 3.51484 210.985 3.80129 211.262 4.15742C211.554 4.51355 211.746 4.92387 211.839 5.38839C211.931 5.83742 211.977 6.30194 211.977 6.78194V11.3806C211.977 11.6903 212.054 11.9845 212.208 12.2632C212.362 12.5265 212.57 12.6581 212.831 12.6581V12.8903H210.5ZM210.5 10.6839V7.36258L210.269 7.40903C209.9 7.50194 209.446 7.62581 208.907 7.78064C208.384 7.93548 207.884 8.13677 207.407 8.38452C206.929 8.63226 206.522 8.92645 206.183 9.2671C205.844 9.60774 205.675 10.0026 205.675 10.4516C205.675 10.9471 205.875 11.3574 206.275 11.6826C206.676 12.0077 207.199 12.1703 207.845 12.1703C208.353 12.1703 208.799 12.0619 209.184 11.8452C209.569 11.6129 209.923 11.3187 210.246 10.9626L210.5 10.6839Z" fill="#F7F7F7"/>
                <path d="M219.873 2.9729C220.704 2.9729 221.419 3.12 222.019 3.41419C222.635 3.6929 223.143 4.06452 223.543 4.52903C223.959 4.99355 224.266 5.52774 224.466 6.13161C224.666 6.73548 224.766 7.35484 224.766 7.98968C224.766 8.60903 224.666 9.22065 224.466 9.82452C224.282 10.4284 223.989 10.9703 223.589 11.4503C223.204 11.9303 222.72 12.3174 222.135 12.6116C221.55 12.9058 220.858 13.0529 220.057 13.0529C219.58 13.0529 219.088 12.929 218.58 12.6813C218.087 12.4181 217.641 12.0929 217.241 11.7058V16.4903C217.241 16.6142 217.256 16.7458 217.287 16.8852C217.318 17.04 217.364 17.1794 217.426 17.3032C217.503 17.4271 217.58 17.5355 217.657 17.6284C217.749 17.7213 217.857 17.7677 217.98 17.7677V18H214.979V17.7677C215.087 17.7677 215.187 17.7213 215.279 17.6284C215.371 17.5355 215.448 17.4271 215.51 17.3032C215.587 17.1794 215.641 17.04 215.671 16.8852C215.702 16.7458 215.718 16.6142 215.718 16.4903V4.50581C215.718 4.36645 215.71 4.23484 215.694 4.11097C215.694 3.97161 215.671 3.85548 215.625 3.76258C215.579 3.65419 215.502 3.56903 215.394 3.5071C215.302 3.42968 215.163 3.38323 214.979 3.36774V3.13548H217.241V4.15742C217.549 3.78581 217.918 3.49936 218.349 3.29806C218.795 3.08129 219.303 2.9729 219.873 2.9729ZM220.08 12.2632C220.619 12.2477 221.088 12.1239 221.489 11.8916C221.889 11.6594 222.22 11.3574 222.481 10.9858C222.743 10.6142 222.935 10.2039 223.058 9.75484C223.181 9.29032 223.243 8.81032 223.243 8.31484C223.243 7.75742 223.166 7.20774 223.012 6.66581C222.858 6.12387 222.635 5.64387 222.343 5.22581C222.05 4.79226 221.689 4.44387 221.258 4.18064C220.842 3.90194 220.365 3.76258 219.826 3.76258C219.503 3.76258 219.18 3.82452 218.857 3.94839C218.549 4.07226 218.272 4.25032 218.026 4.48258C217.795 4.71484 217.603 4.99355 217.449 5.31871C217.31 5.62839 217.241 5.97677 217.241 6.36387V9.40645C217.241 9.82452 217.326 10.2116 217.495 10.5677C217.664 10.9084 217.88 11.2103 218.141 11.4735C218.418 11.7213 218.726 11.9148 219.065 12.0542C219.403 12.1935 219.742 12.2632 220.08 12.2632Z" fill="#F7F7F7"/>
                <path d="M235.354 12.0542C235.231 12.0542 235.115 12.0852 235.008 12.1471C234.9 12.1935 234.777 12.2555 234.638 12.3329C234.377 12.4877 234.03 12.6503 233.6 12.8206C233.169 12.9755 232.63 13.0529 231.984 13.0529C231.199 13.0529 230.476 12.929 229.814 12.6813C229.167 12.4181 228.606 12.0619 228.129 11.6129C227.652 11.1484 227.282 10.6142 227.021 10.0103C226.759 9.39097 226.628 8.72516 226.628 8.0129C226.628 7.3471 226.744 6.71226 226.974 6.10839C227.221 5.50452 227.567 4.97032 228.013 4.50581C228.459 4.04129 229.006 3.66968 229.652 3.39097C230.314 3.11226 231.06 2.9729 231.891 2.9729C232.461 2.9729 232.922 3.04258 233.276 3.18194C233.63 3.30581 233.93 3.42968 234.177 3.55355C234.315 3.63097 234.446 3.6929 234.569 3.73935C234.708 3.78581 234.846 3.80903 234.985 3.80903V5.57419H234.754C234.677 5.28 234.538 5.02452 234.338 4.80774C234.138 4.57548 233.907 4.38194 233.646 4.2271C233.384 4.07226 233.099 3.95613 232.792 3.87871C232.484 3.80129 232.184 3.76258 231.891 3.76258C231.26 3.76258 230.706 3.87871 230.229 4.11097C229.752 4.32774 229.36 4.62194 229.052 4.99355C228.744 5.34968 228.513 5.76 228.359 6.22452C228.206 6.68903 228.129 7.16903 228.129 7.66452C228.129 8.23742 228.213 8.80258 228.383 9.36C228.567 9.90194 228.821 10.3897 229.144 10.8232C229.483 11.2568 229.891 11.6052 230.368 11.8684C230.86 12.1316 231.414 12.2632 232.03 12.2632C232.461 12.2632 232.861 12.2013 233.23 12.0774C233.6 11.9535 233.915 11.791 234.177 11.5897C234.454 11.3884 234.669 11.1716 234.823 10.9394C234.992 10.6916 235.092 10.4594 235.123 10.2426H235.354V12.0542Z" fill="#F7F7F7"/>
                <path d="M243.885 11.0787C243.977 11.249 244.1 11.4271 244.254 11.6129C244.408 11.7987 244.577 11.969 244.762 12.1239C244.962 12.2787 245.162 12.4103 245.362 12.5187C245.562 12.6116 245.754 12.6581 245.939 12.6581V12.8903H245.062C244.354 12.8903 243.808 12.7432 243.423 12.449C243.038 12.1548 242.738 11.8065 242.523 11.4039L241.438 9.33677C241.268 9.01161 240.984 8.7329 240.584 8.50064C240.183 8.2529 239.76 8.12903 239.314 8.12903V11.4271C239.314 11.551 239.322 11.6826 239.337 11.8219C239.368 11.9613 239.414 12.0929 239.476 12.2168C239.537 12.3406 239.614 12.449 239.706 12.5419C239.799 12.6194 239.906 12.6581 240.03 12.6581V12.8903H237.052V12.6581C237.159 12.6581 237.259 12.6194 237.352 12.5419C237.46 12.449 237.544 12.3406 237.606 12.2168C237.667 12.0929 237.713 11.9613 237.744 11.8219C237.775 11.6826 237.79 11.551 237.79 11.4271V4.59871C237.79 4.49032 237.775 4.36645 237.744 4.2271C237.713 4.07226 237.667 3.9329 237.606 3.80903C237.56 3.68516 237.49 3.58452 237.398 3.5071C237.306 3.41419 237.19 3.36774 237.052 3.36774V3.13548H240.006V3.36774C239.899 3.36774 239.799 3.41419 239.706 3.5071C239.629 3.58452 239.56 3.68516 239.499 3.80903C239.437 3.9329 239.391 4.07226 239.36 4.2271C239.329 4.36645 239.314 4.49032 239.314 4.59871V6.99097C239.976 6.40258 240.63 5.83742 241.276 5.29548C241.922 4.73806 242.577 4.16516 243.238 3.57677C243.238 3.56129 243.246 3.54581 243.261 3.53032C243.277 3.51484 243.284 3.49935 243.284 3.48387C243.284 3.40645 243.246 3.36774 243.169 3.36774V3.13548H245.177V3.36774C245.1 3.36774 245.008 3.39097 244.9 3.43742C244.793 3.48387 244.685 3.53806 244.577 3.6C244.454 3.66194 244.331 3.73935 244.208 3.83226C243.515 4.42065 242.823 5.02452 242.13 5.64387C241.438 6.24774 240.745 6.84387 240.053 7.43226C240.714 7.43226 241.253 7.55613 241.669 7.80387C242.099 8.05161 242.461 8.44645 242.753 8.98839L243.885 11.0787Z" fill="#F7F7F7"/>
                <path d="M256.562 11.3806C256.562 11.5045 256.577 11.6439 256.608 11.7987C256.654 11.9381 256.708 12.0697 256.769 12.1935C256.831 12.3174 256.908 12.4258 257 12.5187C257.108 12.6116 257.208 12.6581 257.3 12.6581V12.8903H254.346V12.6581C254.453 12.6581 254.553 12.6194 254.646 12.5419C254.738 12.449 254.815 12.3406 254.877 12.2168C254.938 12.0774 254.984 11.9381 255.015 11.7987C255.046 11.6439 255.061 11.5045 255.061 11.3806V5.80645L249.567 11.2181V11.3806C249.567 11.5045 249.583 11.6439 249.613 11.7987C249.644 11.9381 249.69 12.0697 249.752 12.1935C249.813 12.3174 249.883 12.4258 249.96 12.5187C250.052 12.6116 250.152 12.6581 250.26 12.6581V12.8903H247.328V12.6581C247.436 12.6581 247.536 12.6194 247.628 12.5419C247.721 12.449 247.797 12.3406 247.859 12.2168C247.921 12.0774 247.967 11.9381 247.998 11.7987C248.028 11.6439 248.044 11.5045 248.044 11.3806V4.57548C248.044 4.4671 248.028 4.34323 247.998 4.20387C247.967 4.06452 247.921 3.9329 247.859 3.80903C247.797 3.68516 247.721 3.58452 247.628 3.5071C247.536 3.41419 247.436 3.36774 247.328 3.36774V3.13548H250.26V3.36774C250.137 3.36774 250.029 3.41419 249.937 3.5071C249.86 3.58452 249.79 3.68516 249.729 3.80903C249.683 3.9329 249.644 4.06452 249.613 4.20387C249.583 4.34323 249.567 4.4671 249.567 4.57548V10.1265L255.061 4.71484V4.57548C255.061 4.4671 255.046 4.34323 255.015 4.20387C254.984 4.06452 254.938 3.9329 254.877 3.80903C254.815 3.68516 254.738 3.58452 254.646 3.5071C254.553 3.41419 254.453 3.36774 254.346 3.36774V3.13548H257.3V3.36774C257.177 3.36774 257.062 3.41419 256.954 3.5071C256.862 3.58452 256.785 3.68516 256.723 3.80903C256.677 3.9329 256.639 4.06452 256.608 4.20387C256.577 4.34323 256.562 4.4671 256.562 4.57548V11.3806Z" fill="#F7F7F7"/>
                <path d="M268.78 11.3806C268.78 11.5045 268.795 11.6439 268.826 11.7987C268.872 11.9381 268.926 12.0697 268.988 12.1935C269.049 12.3174 269.126 12.4258 269.219 12.5187C269.326 12.6116 269.426 12.6581 269.519 12.6581V12.8903H266.564V12.6581C266.672 12.6581 266.772 12.6194 266.864 12.5419C266.956 12.449 267.033 12.3406 267.095 12.2168C267.156 12.0774 267.203 11.9381 267.233 11.7987C267.264 11.6439 267.28 11.5045 267.28 11.3806V5.80645L261.786 11.2181V11.3806C261.786 11.5045 261.801 11.6439 261.832 11.7987C261.863 11.9381 261.909 12.0697 261.97 12.1935C262.032 12.3174 262.101 12.4258 262.178 12.5187C262.27 12.6116 262.37 12.6581 262.478 12.6581V12.8903H259.546V12.6581C259.654 12.6581 259.754 12.6194 259.847 12.5419C259.939 12.449 260.016 12.3406 260.077 12.2168C260.139 12.0774 260.185 11.9381 260.216 11.7987C260.247 11.6439 260.262 11.5045 260.262 11.3806V4.57548C260.262 4.4671 260.247 4.34323 260.216 4.20387C260.185 4.06452 260.139 3.9329 260.077 3.80903C260.016 3.68516 259.939 3.58452 259.847 3.5071C259.754 3.41419 259.654 3.36774 259.546 3.36774V3.13548H262.478V3.36774C262.355 3.36774 262.247 3.41419 262.155 3.5071C262.078 3.58452 262.009 3.68516 261.947 3.80903C261.901 3.9329 261.863 4.06452 261.832 4.20387C261.801 4.34323 261.786 4.4671 261.786 4.57548V10.1265L267.28 4.71484V4.57548C267.28 4.4671 267.264 4.34323 267.233 4.20387C267.203 4.06452 267.156 3.9329 267.095 3.80903C267.033 3.68516 266.956 3.58452 266.864 3.5071C266.772 3.41419 266.672 3.36774 266.564 3.36774V3.13548H269.519V3.36774C269.396 3.36774 269.28 3.41419 269.172 3.5071C269.08 3.58452 269.003 3.68516 268.942 3.80903C268.895 3.9329 268.857 4.06452 268.826 4.20387C268.795 4.34323 268.78 4.4671 268.78 4.57548V11.3806ZM267.003 0C267.003 0.247741 266.941 0.51871 266.818 0.812903C266.695 1.09161 266.518 1.35484 266.287 1.60258C266.056 1.83484 265.779 2.02839 265.456 2.18323C265.148 2.33806 264.802 2.41548 264.417 2.41548C264.063 2.41548 263.725 2.34581 263.401 2.20645C263.094 2.05161 262.824 1.85806 262.594 1.62581C262.363 1.39355 262.178 1.13806 262.04 0.859355C261.901 0.565162 261.832 0.27871 261.832 0H261.97C261.986 0.092903 262.032 0.224516 262.109 0.394838C262.201 0.549677 262.34 0.712259 262.524 0.882581C262.709 1.0529 262.947 1.2 263.24 1.32387C263.548 1.44774 263.932 1.50968 264.394 1.50968C264.871 1.50968 265.264 1.44774 265.571 1.32387C265.879 1.2 266.125 1.0529 266.31 0.882581C266.495 0.712259 266.626 0.549677 266.703 0.394838C266.779 0.224516 266.833 0.092903 266.864 0H267.003Z" fill="#F7F7F7"/>
                <path d="M283.832 12.8903V11.7058L283.717 11.8219C283.332 12.209 282.886 12.511 282.378 12.7277C281.886 12.9445 281.285 13.0529 280.577 13.0529C280.039 13.0529 279.577 12.991 279.192 12.8671C278.808 12.7432 278.492 12.5729 278.246 12.3561C278 12.1239 277.815 11.8606 277.692 11.5665C277.584 11.2723 277.53 10.9626 277.53 10.6374C277.53 10.111 277.669 9.64645 277.946 9.24387C278.238 8.84129 278.654 8.48516 279.192 8.17548C279.731 7.86581 280.385 7.5871 281.155 7.33936C281.939 7.07613 282.832 6.82065 283.832 6.5729C283.802 5.96903 283.678 5.48129 283.463 5.10968C283.248 4.73806 282.994 4.45161 282.701 4.25032C282.409 4.03355 282.101 3.89419 281.778 3.83226C281.455 3.75484 281.178 3.71613 280.947 3.71613C280.547 3.71613 280.193 3.77806 279.885 3.90194C279.577 4.01032 279.308 4.16516 279.077 4.36645C278.846 4.55226 278.654 4.76903 278.5 5.01677C278.361 5.26452 278.254 5.51226 278.177 5.76H277.969V3.94839C278.107 3.94839 278.269 3.90194 278.454 3.80903C278.638 3.70064 278.854 3.58452 279.1 3.46064C279.362 3.33677 279.669 3.22839 280.023 3.13548C280.393 3.0271 280.831 2.9729 281.339 2.9729C282.186 2.9729 282.87 3.08129 283.394 3.29806C283.917 3.51484 284.317 3.80129 284.594 4.15742C284.887 4.51355 285.079 4.92387 285.171 5.38839C285.264 5.83742 285.31 6.30194 285.31 6.78194V11.3806C285.31 11.6903 285.387 11.9845 285.541 12.2632C285.694 12.5265 285.902 12.6581 286.164 12.6581V12.8903H283.832ZM283.832 10.6839V7.36258L283.601 7.40903C283.232 7.50194 282.778 7.62581 282.24 7.78064C281.716 7.93548 281.216 8.13677 280.739 8.38452C280.262 8.63226 279.854 8.92645 279.516 9.2671C279.177 9.60774 279.008 10.0026 279.008 10.4516C279.008 10.9471 279.208 11.3574 279.608 11.6826C280.008 12.0077 280.531 12.1703 281.178 12.1703C281.686 12.1703 282.132 12.0619 282.517 11.8452C282.901 11.6129 283.255 11.3187 283.578 10.9626L283.832 10.6839Z" fill="#F7F7F7"/>
                <path d="M295.283 11.0787C295.375 11.249 295.498 11.4271 295.652 11.6129C295.806 11.7987 295.975 11.969 296.16 12.1239C296.36 12.2787 296.56 12.4103 296.76 12.5187C296.96 12.6116 297.153 12.6581 297.337 12.6581V12.8903H296.46C295.752 12.8903 295.206 12.7432 294.821 12.449C294.436 12.1548 294.136 11.8065 293.921 11.4039L292.836 9.33677C292.667 9.01161 292.382 8.7329 291.982 8.50064C291.582 8.2529 291.158 8.12903 290.712 8.12903V11.4271C290.712 11.551 290.72 11.6826 290.735 11.8219C290.766 11.9613 290.812 12.0929 290.874 12.2168C290.935 12.3406 291.012 12.449 291.105 12.5419C291.197 12.6194 291.305 12.6581 291.428 12.6581V12.8903H288.45V12.6581C288.558 12.6581 288.658 12.6194 288.75 12.5419C288.858 12.449 288.942 12.3406 289.004 12.2168C289.065 12.0929 289.112 11.9613 289.142 11.8219C289.173 11.6826 289.189 11.551 289.189 11.4271V4.59871C289.189 4.49032 289.173 4.36645 289.142 4.2271C289.112 4.07226 289.065 3.9329 289.004 3.80903C288.958 3.68516 288.888 3.58452 288.796 3.5071C288.704 3.41419 288.588 3.36774 288.45 3.36774V3.13548H291.405V3.36774C291.297 3.36774 291.197 3.41419 291.105 3.5071C291.028 3.58452 290.958 3.68516 290.897 3.80903C290.835 3.9329 290.789 4.07226 290.758 4.2271C290.728 4.36645 290.712 4.49032 290.712 4.59871V6.99097C291.374 6.40258 292.028 5.83742 292.674 5.29548C293.321 4.73806 293.975 4.16516 294.636 3.57677C294.636 3.56129 294.644 3.54581 294.659 3.53032C294.675 3.51484 294.683 3.49935 294.683 3.48387C294.683 3.40645 294.644 3.36774 294.567 3.36774V3.13548H296.575V3.36774C296.499 3.36774 296.406 3.39097 296.298 3.43742C296.191 3.48387 296.083 3.53806 295.975 3.6C295.852 3.66194 295.729 3.73935 295.606 3.83226C294.913 4.42065 294.221 5.02452 293.528 5.64387C292.836 6.24774 292.143 6.84387 291.451 7.43226C292.113 7.43226 292.651 7.55613 293.067 7.80387C293.498 8.05161 293.859 8.44645 294.152 8.98839L295.283 11.0787Z" fill="#F7F7F7"/>
                <path d="M304.797 12.8903V11.7058L304.682 11.8219C304.297 12.209 303.851 12.511 303.343 12.7277C302.851 12.9445 302.25 13.0529 301.543 13.0529C301.004 13.0529 300.542 12.991 300.157 12.8671C299.773 12.7432 299.457 12.5729 299.211 12.3561C298.965 12.1239 298.78 11.8606 298.657 11.5665C298.549 11.2723 298.495 10.9626 298.495 10.6374C298.495 10.111 298.634 9.64645 298.911 9.24387C299.203 8.84129 299.619 8.48516 300.157 8.17548C300.696 7.86581 301.35 7.5871 302.12 7.33936C302.904 7.07613 303.797 6.82065 304.797 6.5729C304.767 5.96903 304.643 5.48129 304.428 5.10968C304.213 4.73806 303.959 4.45161 303.666 4.25032C303.374 4.03355 303.066 3.89419 302.743 3.83226C302.42 3.75484 302.143 3.71613 301.912 3.71613C301.512 3.71613 301.158 3.77806 300.85 3.90194C300.542 4.01032 300.273 4.16516 300.042 4.36645C299.811 4.55226 299.619 4.76903 299.465 5.01677C299.326 5.26452 299.219 5.51226 299.142 5.76H298.934V3.94839C299.073 3.94839 299.234 3.90194 299.419 3.80903C299.603 3.70064 299.819 3.58452 300.065 3.46064C300.327 3.33677 300.635 3.22839 300.988 3.13548C301.358 3.0271 301.796 2.9729 302.304 2.9729C303.151 2.9729 303.836 3.08129 304.359 3.29806C304.882 3.51484 305.282 3.80129 305.559 4.15742C305.852 4.51355 306.044 4.92387 306.136 5.38839C306.229 5.83742 306.275 6.30194 306.275 6.78194V11.3806C306.275 11.6903 306.352 11.9845 306.506 12.2632C306.659 12.5265 306.867 12.6581 307.129 12.6581V12.8903H304.797ZM304.797 10.6839V7.36258L304.567 7.40903C304.197 7.50194 303.743 7.62581 303.205 7.78064C302.681 7.93548 302.181 8.13677 301.704 8.38452C301.227 8.63226 300.819 8.92645 300.481 9.2671C300.142 9.60774 299.973 10.0026 299.973 10.4516C299.973 10.9471 300.173 11.3574 300.573 11.6826C300.973 12.0077 301.496 12.1703 302.143 12.1703C302.651 12.1703 303.097 12.0619 303.482 11.8452C303.866 11.6129 304.22 11.3187 304.543 10.9626L304.797 10.6839Z" fill="#F7F7F7"/>
                <path d="M319.526 12.1239V14.9806H319.295C319.264 14.7948 319.21 14.5781 319.133 14.3303C319.056 14.0981 318.949 13.8735 318.81 13.6568C318.672 13.44 318.502 13.2542 318.302 13.0994C318.118 12.96 317.902 12.8903 317.656 12.8903H310.315C310.069 12.8903 309.846 12.96 309.646 13.0994C309.446 13.2542 309.269 13.44 309.115 13.6568C308.976 13.8735 308.861 14.0981 308.769 14.3303C308.692 14.5781 308.645 14.7948 308.63 14.9806H308.399V12.1239H309.276C309.369 12.1239 309.453 12.0852 309.53 12.0077C309.623 11.9303 309.707 11.8374 309.784 11.729C309.877 11.6206 309.961 11.5045 310.038 11.3806C310.115 11.2413 310.184 11.1174 310.246 11.009C310.477 10.4826 310.754 9.85548 311.077 9.12774C311.416 8.4 311.754 7.64903 312.093 6.87484C312.447 6.10064 312.785 5.34968 313.108 4.62194C313.432 3.87871 313.709 3.24387 313.939 2.71742L317.841 11.2877C317.964 11.551 318.079 11.76 318.187 11.9148C318.295 12.0542 318.441 12.1239 318.625 12.1239H319.526ZM310.546 12.1239H316.548L313.547 5.50452L310.546 12.1239Z" fill="#F7F7F7"/>
                <path d="M322.155 8.19871C322.217 8.74065 322.348 9.25935 322.548 9.75484C322.748 10.2348 323.009 10.6606 323.332 11.0323C323.671 11.4039 324.079 11.7058 324.556 11.9381C325.033 12.1548 325.587 12.2632 326.218 12.2632C326.557 12.2632 326.911 12.2168 327.28 12.1239C327.665 12.0155 328.019 11.8684 328.342 11.6826C328.665 11.4968 328.95 11.2723 329.196 11.009C329.457 10.7303 329.634 10.4206 329.727 10.08H329.935V11.8219C329.842 11.8219 329.734 11.8529 329.611 11.9148C329.504 11.9768 329.373 12.0542 329.219 12.1471C328.911 12.3329 328.496 12.5342 327.972 12.751C327.449 12.9523 326.757 13.0529 325.895 13.0529C325.202 13.0529 324.541 12.9523 323.91 12.751C323.294 12.5497 322.748 12.24 322.271 11.8219C321.794 11.4039 321.409 10.8697 321.116 10.2194C320.839 9.56903 320.701 8.79484 320.701 7.89677C320.701 7.32387 320.793 6.74323 320.978 6.15484C321.178 5.56645 321.47 5.04 321.855 4.57548C322.255 4.09548 322.763 3.70839 323.379 3.41419C323.994 3.12 324.733 2.9729 325.595 2.9729C326.364 2.9729 327.034 3.10452 327.603 3.36774C328.188 3.63097 328.665 3.99484 329.034 4.45936C329.419 4.92387 329.704 5.47355 329.888 6.10839C330.073 6.74323 330.165 7.44 330.165 8.19871H322.155ZM325.502 3.73935C324.964 3.73935 324.494 3.84774 324.094 4.06452C323.709 4.28129 323.379 4.56 323.102 4.90065C322.825 5.24129 322.609 5.62839 322.455 6.06194C322.301 6.49548 322.201 6.92903 322.155 7.36258H328.734C328.719 6.91355 328.634 6.47226 328.48 6.03871C328.342 5.60516 328.142 5.21806 327.88 4.87742C327.618 4.53677 327.288 4.26581 326.887 4.06452C326.487 3.84774 326.026 3.73935 325.502 3.73935Z" fill="#F7F7F7"/>
                <path d="M342.662 11.3806C342.662 11.5045 342.677 11.6439 342.708 11.7987C342.739 11.9381 342.785 12.0697 342.847 12.1935C342.924 12.3174 343.008 12.4258 343.101 12.5187C343.193 12.6116 343.301 12.6581 343.424 12.6581V12.8903H340.423V12.6581C340.546 12.6581 340.654 12.6194 340.746 12.5419C340.838 12.449 340.915 12.3406 340.977 12.2168C341.038 12.0774 341.085 11.9381 341.115 11.7987C341.146 11.6439 341.161 11.5045 341.161 11.3806V5.10968L337.306 13.0994L333.613 5.57419V11.3806C333.613 11.5045 333.628 11.6439 333.659 11.7987C333.69 11.9381 333.736 12.0697 333.798 12.1935C333.859 12.3174 333.936 12.4258 334.029 12.5187C334.121 12.6116 334.229 12.6581 334.352 12.6581V12.8903H332.113V12.6581C332.236 12.6581 332.343 12.6116 332.436 12.5187C332.528 12.4258 332.597 12.3174 332.643 12.1935C332.705 12.0697 332.751 11.9381 332.782 11.7987C332.813 11.6439 332.828 11.5045 332.828 11.3806V4.57548C332.828 4.29677 332.79 4.02581 332.713 3.76258C332.651 3.49935 332.451 3.36774 332.113 3.36774V3.13548H334.167L337.699 10.4052L341.231 3.13548H343.424V3.36774C343.193 3.36774 343.008 3.51484 342.87 3.80903C342.731 4.08774 342.662 4.34323 342.662 4.57548V11.3806Z" fill="#F7F7F7"/>
                <path d="M354.94 11.3806C354.94 11.5045 354.955 11.6439 354.986 11.7987C355.032 11.9381 355.086 12.0697 355.147 12.1935C355.209 12.3174 355.286 12.4258 355.378 12.5187C355.486 12.6116 355.586 12.6581 355.678 12.6581V12.8903H352.724V12.6581C352.831 12.6581 352.931 12.6194 353.024 12.5419C353.116 12.449 353.193 12.3406 353.255 12.2168C353.316 12.0774 353.362 11.9381 353.393 11.7987C353.424 11.6439 353.439 11.5045 353.439 11.3806V5.80645L347.945 11.2181V11.3806C347.945 11.5045 347.961 11.6439 347.991 11.7987C348.022 11.9381 348.068 12.0697 348.13 12.1935C348.191 12.3174 348.261 12.4258 348.338 12.5187C348.43 12.6116 348.53 12.6581 348.638 12.6581V12.8903H345.706V12.6581C345.814 12.6581 345.914 12.6194 346.006 12.5419C346.098 12.449 346.175 12.3406 346.237 12.2168C346.298 12.0774 346.345 11.9381 346.375 11.7987C346.406 11.6439 346.422 11.5045 346.422 11.3806V4.57548C346.422 4.4671 346.406 4.34323 346.375 4.20387C346.345 4.06452 346.298 3.9329 346.237 3.80903C346.175 3.68516 346.098 3.58452 346.006 3.5071C345.914 3.41419 345.814 3.36774 345.706 3.36774V3.13548H348.638V3.36774C348.515 3.36774 348.407 3.41419 348.314 3.5071C348.238 3.58452 348.168 3.68516 348.107 3.80903C348.061 3.9329 348.022 4.06452 347.991 4.20387C347.961 4.34323 347.945 4.4671 347.945 4.57548V10.1265L353.439 4.71484V4.57548C353.439 4.4671 353.424 4.34323 353.393 4.20387C353.362 4.06452 353.316 3.9329 353.255 3.80903C353.193 3.68516 353.116 3.58452 353.024 3.5071C352.931 3.41419 352.831 3.36774 352.724 3.36774V3.13548H355.678V3.36774C355.555 3.36774 355.44 3.41419 355.332 3.5071C355.24 3.58452 355.163 3.68516 355.101 3.80903C355.055 3.9329 355.017 4.06452 354.986 4.20387C354.955 4.34323 354.94 4.4671 354.94 4.57548V11.3806Z" fill="#F7F7F7"/>
                <path d="M365.634 11.4271C365.634 11.551 365.65 11.6826 365.681 11.8219C365.727 11.9613 365.781 12.0929 365.842 12.2168C365.904 12.3406 365.973 12.449 366.05 12.5419C366.127 12.6194 366.227 12.6581 366.35 12.6581V12.8903H363.418V12.6581C363.526 12.6581 363.618 12.6194 363.695 12.5419C363.788 12.449 363.865 12.3406 363.926 12.2168C363.988 12.0929 364.034 11.9613 364.065 11.8219C364.095 11.6826 364.111 11.551 364.111 11.4271V8.22194C363.757 8.59355 363.38 8.88 362.98 9.08129C362.595 9.2671 362.11 9.36 361.525 9.36C360.971 9.36 360.479 9.25161 360.048 9.03484C359.617 8.81807 359.256 8.53161 358.963 8.17548C358.686 7.80387 358.471 7.39355 358.317 6.94452C358.178 6.48 358.109 6 358.109 5.50452V4.57548C358.109 4.4671 358.094 4.34323 358.063 4.20387C358.047 4.06452 358.017 3.9329 357.971 3.80903C357.924 3.68516 357.863 3.58452 357.786 3.5071C357.724 3.41419 357.655 3.36774 357.578 3.36774V3.13548H360.279V3.36774C360.187 3.36774 360.094 3.41419 360.002 3.5071C359.925 3.58452 359.856 3.68516 359.794 3.80903C359.748 3.9329 359.71 4.06452 359.679 4.20387C359.648 4.34323 359.633 4.4671 359.633 4.57548V5.50452C359.633 6.03097 359.71 6.48 359.863 6.85161C360.017 7.20774 360.21 7.50194 360.441 7.73419C360.671 7.95097 360.925 8.11355 361.202 8.22194C361.479 8.31484 361.749 8.36129 362.01 8.36129C362.41 8.36129 362.772 8.26839 363.095 8.08258C363.434 7.88129 363.772 7.57936 364.111 7.17677V4.57548C364.111 4.4671 364.095 4.34323 364.065 4.20387C364.034 4.06452 363.988 3.9329 363.926 3.80903C363.865 3.68516 363.788 3.58452 363.695 3.5071C363.618 3.41419 363.526 3.36774 363.418 3.36774V3.13548H366.35V3.36774C366.227 3.36774 366.127 3.41419 366.05 3.5071C365.973 3.58452 365.904 3.68516 365.842 3.80903C365.781 3.9329 365.727 4.06452 365.681 4.20387C365.65 4.34323 365.634 4.4671 365.634 4.57548V11.4271Z" fill="#F7F7F7"/>
                <path d="M369.879 8.19871C369.94 8.74065 370.071 9.25935 370.271 9.75484C370.471 10.2348 370.733 10.6606 371.056 11.0323C371.395 11.4039 371.803 11.7058 372.28 11.9381C372.757 12.1548 373.311 12.2632 373.942 12.2632C374.28 12.2632 374.634 12.2168 375.004 12.1239C375.388 12.0155 375.742 11.8684 376.065 11.6826C376.389 11.4968 376.673 11.2723 376.919 11.009C377.181 10.7303 377.358 10.4206 377.45 10.08H377.658V11.8219C377.566 11.8219 377.458 11.8529 377.335 11.9148C377.227 11.9768 377.096 12.0542 376.943 12.1471C376.635 12.3329 376.219 12.5342 375.696 12.751C375.173 12.9523 374.48 13.0529 373.618 13.0529C372.926 13.0529 372.264 12.9523 371.633 12.751C371.018 12.5497 370.471 12.24 369.994 11.8219C369.517 11.4039 369.132 10.8697 368.84 10.2194C368.563 9.56903 368.425 8.79484 368.425 7.89677C368.425 7.32387 368.517 6.74323 368.702 6.15484C368.902 5.56645 369.194 5.04 369.579 4.57548C369.979 4.09548 370.487 3.70839 371.102 3.41419C371.718 3.12 372.457 2.9729 373.318 2.9729C374.088 2.9729 374.757 3.10452 375.327 3.36774C375.911 3.63097 376.389 3.99484 376.758 4.45936C377.143 4.92387 377.427 5.47355 377.612 6.10839C377.797 6.74323 377.889 7.44 377.889 8.19871H369.879ZM373.226 3.73935C372.687 3.73935 372.218 3.84774 371.818 4.06452C371.433 4.28129 371.102 4.56 370.825 4.90065C370.548 5.24129 370.333 5.62839 370.179 6.06194C370.025 6.49548 369.925 6.92903 369.879 7.36258H376.458C376.442 6.91355 376.358 6.47226 376.204 6.03871C376.065 5.60516 375.865 5.21806 375.604 4.87742C375.342 4.53677 375.011 4.26581 374.611 4.06452C374.211 3.84774 373.749 3.73935 373.226 3.73935Z" fill="#F7F7F7"/>
                <path d="M387.835 12.0542C387.712 12.0542 387.597 12.0852 387.489 12.1471C387.381 12.1935 387.258 12.2555 387.12 12.3329C386.858 12.4877 386.512 12.6503 386.081 12.8206C385.65 12.9755 385.111 13.0529 384.465 13.0529C383.68 13.0529 382.957 12.929 382.295 12.6813C381.649 12.4181 381.087 12.0619 380.61 11.6129C380.133 11.1484 379.763 10.6142 379.502 10.0103C379.24 9.39097 379.109 8.72516 379.109 8.0129C379.109 7.3471 379.225 6.71226 379.456 6.10839C379.702 5.50452 380.048 4.97032 380.494 4.50581C380.941 4.04129 381.487 3.66968 382.133 3.39097C382.795 3.11226 383.542 2.9729 384.373 2.9729C384.942 2.9729 385.404 3.04258 385.758 3.18194C386.112 3.30581 386.412 3.42968 386.658 3.55355C386.796 3.63097 386.927 3.6929 387.05 3.73935C387.189 3.78581 387.327 3.80903 387.466 3.80903V5.57419H387.235C387.158 5.28 387.02 5.02452 386.819 4.80774C386.619 4.57548 386.389 4.38194 386.127 4.2271C385.865 4.07226 385.581 3.95613 385.273 3.87871C384.965 3.80129 384.665 3.76258 384.373 3.76258C383.742 3.76258 383.188 3.87871 382.711 4.11097C382.233 4.32774 381.841 4.62194 381.533 4.99355C381.225 5.34968 380.995 5.76 380.841 6.22452C380.687 6.68903 380.61 7.16903 380.61 7.66452C380.61 8.23742 380.695 8.80258 380.864 9.36C381.048 9.90194 381.302 10.3897 381.626 10.8232C381.964 11.2568 382.372 11.6052 382.849 11.8684C383.341 12.1316 383.895 12.2632 384.511 12.2632C384.942 12.2632 385.342 12.2013 385.711 12.0774C386.081 11.9535 386.396 11.791 386.658 11.5897C386.935 11.3884 387.15 11.1716 387.304 10.9394C387.474 10.6916 387.574 10.4594 387.604 10.2426H387.835V12.0542Z" fill="#F7F7F7"/>
                <path d="M396.366 11.0787C396.458 11.249 396.581 11.4271 396.735 11.6129C396.889 11.7987 397.058 11.969 397.243 12.1239C397.443 12.2787 397.643 12.4103 397.843 12.5187C398.043 12.6116 398.236 12.6581 398.42 12.6581V12.8903H397.543C396.835 12.8903 396.289 12.7432 395.904 12.449C395.519 12.1548 395.219 11.8065 395.004 11.4039L393.919 9.33677C393.75 9.01161 393.465 8.7329 393.065 8.50064C392.665 8.2529 392.241 8.12903 391.795 8.12903V11.4271C391.795 11.551 391.803 11.6826 391.818 11.8219C391.849 11.9613 391.895 12.0929 391.957 12.2168C392.018 12.3406 392.095 12.449 392.188 12.5419C392.28 12.6194 392.388 12.6581 392.511 12.6581V12.8903H389.533V12.6581C389.641 12.6581 389.741 12.6194 389.833 12.5419C389.941 12.449 390.025 12.3406 390.087 12.2168C390.149 12.0929 390.195 11.9613 390.225 11.8219C390.256 11.6826 390.272 11.551 390.272 11.4271V4.59871C390.272 4.49032 390.256 4.36645 390.225 4.2271C390.195 4.07226 390.149 3.9329 390.087 3.80903C390.041 3.68516 389.972 3.58452 389.879 3.5071C389.787 3.41419 389.671 3.36774 389.533 3.36774V3.13548H392.488V3.36774C392.38 3.36774 392.28 3.41419 392.188 3.5071C392.111 3.58452 392.041 3.68516 391.98 3.80903C391.918 3.9329 391.872 4.07226 391.841 4.2271C391.811 4.36645 391.795 4.49032 391.795 4.59871V6.99097C392.457 6.40258 393.111 5.83742 393.757 5.29548C394.404 4.73806 395.058 4.16516 395.719 3.57677C395.719 3.56129 395.727 3.54581 395.743 3.53032C395.758 3.51484 395.766 3.49935 395.766 3.48387C395.766 3.40645 395.727 3.36774 395.65 3.36774V3.13548H397.659V3.36774C397.582 3.36774 397.489 3.39097 397.382 3.43742C397.274 3.48387 397.166 3.53806 397.058 3.6C396.935 3.66194 396.812 3.73935 396.689 3.83226C395.997 4.42065 395.304 5.02452 394.611 5.64387C393.919 6.24774 393.226 6.84387 392.534 7.43226C393.196 7.43226 393.734 7.55613 394.15 7.80387C394.581 8.05161 394.942 8.44645 395.235 8.98839L396.366 11.0787Z" fill="#F7F7F7"/>
                <path d="M409.043 11.3806C409.043 11.5045 409.058 11.6439 409.089 11.7987C409.135 11.9381 409.189 12.0697 409.251 12.1935C409.312 12.3174 409.389 12.4258 409.482 12.5187C409.589 12.6116 409.689 12.6581 409.782 12.6581V12.8903H406.827V12.6581C406.935 12.6581 407.035 12.6194 407.127 12.5419C407.219 12.449 407.296 12.3406 407.358 12.2168C407.419 12.0774 407.466 11.9381 407.496 11.7987C407.527 11.6439 407.543 11.5045 407.543 11.3806V5.80645L402.048 11.2181V11.3806C402.048 11.5045 402.064 11.6439 402.095 11.7987C402.125 11.9381 402.172 12.0697 402.233 12.1935C402.295 12.3174 402.364 12.4258 402.441 12.5187C402.533 12.6116 402.633 12.6581 402.741 12.6581V12.8903H399.809V12.6581C399.917 12.6581 400.017 12.6194 400.109 12.5419C400.202 12.449 400.279 12.3406 400.34 12.2168C400.402 12.0774 400.448 11.9381 400.479 11.7987C400.51 11.6439 400.525 11.5045 400.525 11.3806V4.57548C400.525 4.4671 400.51 4.34323 400.479 4.20387C400.448 4.06452 400.402 3.9329 400.34 3.80903C400.279 3.68516 400.202 3.58452 400.109 3.5071C400.017 3.41419 399.917 3.36774 399.809 3.36774V3.13548H402.741V3.36774C402.618 3.36774 402.51 3.41419 402.418 3.5071C402.341 3.58452 402.272 3.68516 402.21 3.80903C402.164 3.9329 402.125 4.06452 402.095 4.20387C402.064 4.34323 402.048 4.4671 402.048 4.57548V10.1265L407.543 4.71484V4.57548C407.543 4.4671 407.527 4.34323 407.496 4.20387C407.466 4.06452 407.419 3.9329 407.358 3.80903C407.296 3.68516 407.219 3.58452 407.127 3.5071C407.035 3.41419 406.935 3.36774 406.827 3.36774V3.13548H409.782V3.36774C409.659 3.36774 409.543 3.41419 409.435 3.5071C409.343 3.58452 409.266 3.68516 409.205 3.80903C409.158 3.9329 409.12 4.06452 409.089 4.20387C409.058 4.34323 409.043 4.4671 409.043 4.57548V11.3806Z" fill="#F7F7F7"/>
                <path d="M421.261 11.3806C421.261 11.5045 421.277 11.6439 421.307 11.7987C421.354 11.9381 421.408 12.0697 421.469 12.1935C421.531 12.3174 421.608 12.4258 421.7 12.5187C421.808 12.6116 421.908 12.6581 422 12.6581V12.8903H419.045V12.6581C419.153 12.6581 419.253 12.6194 419.345 12.5419C419.438 12.449 419.515 12.3406 419.576 12.2168C419.638 12.0774 419.684 11.9381 419.715 11.7987C419.745 11.6439 419.761 11.5045 419.761 11.3806V5.80645L414.267 11.2181V11.3806C414.267 11.5045 414.282 11.6439 414.313 11.7987C414.344 11.9381 414.39 12.0697 414.451 12.1935C414.513 12.3174 414.582 12.4258 414.659 12.5187C414.752 12.6116 414.852 12.6581 414.959 12.6581V12.8903H412.028V12.6581C412.135 12.6581 412.235 12.6194 412.328 12.5419C412.42 12.449 412.497 12.3406 412.559 12.2168C412.62 12.0774 412.666 11.9381 412.697 11.7987C412.728 11.6439 412.743 11.5045 412.743 11.3806V4.57548C412.743 4.4671 412.728 4.34323 412.697 4.20387C412.666 4.06452 412.62 3.9329 412.559 3.80903C412.497 3.68516 412.42 3.58452 412.328 3.5071C412.235 3.41419 412.135 3.36774 412.028 3.36774V3.13548H414.959V3.36774C414.836 3.36774 414.729 3.41419 414.636 3.5071C414.559 3.58452 414.49 3.68516 414.428 3.80903C414.382 3.9329 414.344 4.06452 414.313 4.20387C414.282 4.34323 414.267 4.4671 414.267 4.57548V10.1265L419.761 4.71484V4.57548C419.761 4.4671 419.745 4.34323 419.715 4.20387C419.684 4.06452 419.638 3.9329 419.576 3.80903C419.515 3.68516 419.438 3.58452 419.345 3.5071C419.253 3.41419 419.153 3.36774 419.045 3.36774V3.13548H422V3.36774C421.877 3.36774 421.761 3.41419 421.654 3.5071C421.561 3.58452 421.484 3.68516 421.423 3.80903C421.377 3.9329 421.338 4.06452 421.307 4.20387C421.277 4.34323 421.261 4.4671 421.261 4.57548V11.3806ZM419.484 0C419.484 0.247741 419.422 0.51871 419.299 0.812903C419.176 1.09161 418.999 1.35484 418.768 1.60258C418.537 1.83484 418.26 2.02839 417.937 2.18323C417.629 2.33806 417.283 2.41548 416.898 2.41548C416.544 2.41548 416.206 2.34581 415.883 2.20645C415.575 2.05161 415.306 1.85806 415.075 1.62581C414.844 1.39355 414.659 1.13806 414.521 0.859355C414.382 0.565162 414.313 0.27871 414.313 0H414.451C414.467 0.092903 414.513 0.224516 414.59 0.394838C414.682 0.549677 414.821 0.712259 415.006 0.882581C415.19 1.0529 415.429 1.2 415.721 1.32387C416.029 1.44774 416.414 1.50968 416.875 1.50968C417.352 1.50968 417.745 1.44774 418.053 1.32387C418.36 1.2 418.607 1.0529 418.791 0.882581C418.976 0.712259 419.107 0.549677 419.184 0.394838C419.261 0.224516 419.315 0.092903 419.345 0H419.484Z" fill="#F7F7F7"/>
            </g>
        </g>
    </g>
    <path id="Subtract" fill-rule="evenodd" clip-rule="evenodd" d="M116.789 5.69749C116.882 4.18462 117.045 2.70072 117.153 2.39992C117.561 1.25736 118.027 2.6513 118.175 5.45693C118.311 8.02663 118.494 8.60853 119.806 10.6207C120.972 12.4108 121.173 12.9583 120.757 13.2193C120.345 13.478 121.074 15.1878 124.106 21.0675C127.335 27.3309 127.908 28.7009 127.541 29.2805C127.246 29.7454 126.682 29.9554 125.841 29.9137C124.472 29.8454 123.927 29.2928 123.918 27.9641C123.911 26.9475 122.506 25.5358 121.501 25.5358C121.109 25.5358 120.679 25.2315 120.548 24.86C120.062 23.4881 118.753 22.4467 117.517 22.4467C116.28 22.4467 114.972 23.4881 114.485 24.86C114.354 25.2315 113.947 25.5358 113.581 25.5358C112.622 25.5358 111.121 27.0718 111.121 28.053C111.121 29.9284 108.43 30.8335 107.478 29.2785C107.126 28.7036 107.732 27.2595 110.925 21.0578C114.06 14.9689 114.693 13.4695 114.243 13.1923C113.789 12.9127 113.956 12.4467 115.154 10.6492C116.429 8.73595 116.643 8.0888 116.789 5.69749ZM27.3596 10.3886C28.8399 8.05366 28.948 7.69379 28.948 5.09744C28.948 2.65245 29.031 2.32695 29.6264 2.4397C30.1849 2.5455 30.3388 3.11465 30.4985 5.66582C30.6667 8.35523 30.8667 9.03328 32.0148 10.8133C33.09 12.4799 33.2354 12.9266 32.79 13.2012C32.3516 13.4715 32.9943 14.9886 36.0219 20.8304C38.1006 24.8407 39.8011 28.4927 39.8011 28.9453C39.8011 29.5021 39.4863 29.8473 38.8293 30.0114C37.4979 30.3443 35.925 29.2747 35.925 28.0367C35.925 26.8849 34.6703 25.5358 33.5993 25.5358C33.173 25.5358 32.8241 25.3755 32.8241 25.1794C32.8241 24.2897 30.7675 22.4467 29.7752 22.4467C28.4666 22.4467 27.0685 23.4012 26.6077 24.6094C26.4131 25.1187 25.9557 25.5358 25.591 25.5358C24.6208 25.5358 23.1339 27.0784 23.1339 28.0854C23.1339 29.282 22.0715 30.235 20.8955 30.0936C18.6857 29.8284 18.8466 29.1256 22.9517 21.1061C25.9619 15.2261 26.7007 13.4838 26.2937 13.2255C25.884 12.9656 26.1138 12.354 27.3596 10.3886ZM69.3685 14.6222C69.6692 14.418 69.9554 14.1928 70.3082 13.9178C72.8284 11.9536 74.1172 11.9551 76.7374 13.924C78.5425 15.2809 79.9996 15.801 90.5309 18.8472C100.533 21.7409 102.365 22.3826 102.701 23.1109C103.163 24.1163 102.519 25.1496 101.43 25.1496C100.818 25.1496 91.3111 22.461 78.8759 18.7715C76.3835 18.0321 74.011 17.427 73.6028 17.427C72.8796 17.427 70.3799 18.1294 54.2782 22.8568C49.9828 24.1179 46.1078 25.1496 45.6675 25.1496C44.7605 25.1496 43.9566 23.9491 44.2876 23.0892C44.5799 22.3313 45.1121 22.1444 55.4992 19.1588C66.1943 16.0847 67.9443 15.5894 69.3685 14.6222ZM65.9131 24.1511C67.3825 26.0706 68.6794 26.0261 70.5694 23.9912C71.7865 22.6807 72.2408 22.4467 73.5668 22.4467C74.9002 22.4467 75.3347 22.6738 76.5219 23.9912C78.3623 26.0335 79.6112 26.0648 81.1868 24.1082L82.3364 22.6807L84.9133 23.1537C90.4673 24.1731 101.698 27.7429 102.543 28.7572C102.785 29.0476 102.802 29.4484 102.586 29.7963C102.299 30.2593 100.531 30.3975 92.8627 30.5555C84.5439 30.7269 83.4427 30.8234 83.0694 31.4134C82.7958 31.8467 82.7814 32.21 83.0279 32.4556C83.3326 32.7587 92.4577 33.1646 100.761 33.2445C101.93 33.2557 102.31 33.4484 102.657 34.2079C103.005 34.9682 102.963 35.3528 102.446 36.1385L101.801 37.1197H73.523H45.2454L44.6419 36.2019C43.8965 35.0686 44.4822 33.4449 45.7594 33.1032C46.2129 32.9819 50.4708 32.8804 55.2205 32.8777C62.5688 32.873 63.8905 32.785 64.082 32.288C64.2061 31.9668 64.0917 31.4455 63.8285 31.1296C63.4308 30.6524 61.8634 30.5555 54.5255 30.5555C46.5048 30.5555 45.6202 30.4902 44.8121 29.8384L43.9229 29.1214L44.9229 28.4688C46.878 27.1927 58.6811 23.6514 63.0832 23.0201C64.7786 22.7772 64.8972 22.8247 65.9131 24.1511ZM76.6948 28.7132C76.6274 28.2483 76.1242 27.517 75.5766 27.088C73.7311 25.6419 71.5078 26.2459 70.5861 28.4433C70.2508 29.2426 69.7303 29.7747 69.2085 29.8519C68.0426 30.0245 67.3941 31.1304 67.9469 32.0035C68.3194 32.5915 69.0415 32.6792 73.523 32.6792C78.0045 32.6792 78.7266 32.5915 79.0991 32.0035C79.6569 31.1227 79.0208 30.0728 77.7499 29.7763C77.1758 29.6423 76.7704 29.2337 76.6948 28.7132ZM17.7074 37.1197C17.7074 34.7056 17.7993 34.401 18.7516 33.6546C19.7629 32.8622 20.1067 32.8402 29.7585 32.951C37.6581 33.0416 40.1775 33.0308 40.9793 34.1895C41.3812 34.7703 41.3515 35.6449 41.3515 36.9734C41.3515 39.16 41.2321 39.5315 40.1887 40.5949C38.6642 42.1487 38.7185 42.7159 40.4794 43.6395C41.2879 44.0639 41.3515 44.3577 41.3515 47.6746C41.3515 51.7298 41.1131 52.1788 38.9619 52.1788C37.0041 52.1788 36.7006 51.4965 36.6979 47.0881C36.6967 45.1095 36.5138 42.8375 36.2913 42.0394C35.5331 39.3195 32.8226 38.6758 31.3756 40.8717C30.8431 41.6799 30.6496 43.0206 30.4985 46.9471C30.3171 51.6641 30.2551 51.9858 29.5295 51.9858C28.8038 51.9858 28.7418 51.6641 28.5604 46.9471C28.3496 41.4691 27.8697 40.0524 26.072 39.6029C23.5866 38.9812 22.3587 41.2764 22.3587 46.5425C22.3587 51.3876 22.0444 52.1788 20.1203 52.1788C19.3047 52.1788 18.4283 51.9703 18.1725 51.7155C17.8772 51.4212 17.7074 49.9373 17.7074 47.653C17.7074 44.1882 17.7438 44.0369 18.6764 43.6137C19.3257 43.319 19.6454 42.8622 19.6454 42.2294C19.6454 41.6822 19.2381 40.966 18.6764 40.5258C17.8113 39.8477 17.7074 39.4832 17.7074 37.1197ZM105.694 36.9734C105.694 34.5118 106.102 33.7067 107.633 33.146C108.825 32.7097 126.954 32.8618 127.956 33.3171C129.167 33.8665 129.478 34.7782 129.387 37.5058C129.329 39.2457 129.143 39.7716 128.358 40.4165C127.118 41.4351 127.14 42.6588 128.416 43.5847C129.39 44.2906 129.43 44.4659 129.374 47.7418C129.342 49.623 129.125 51.3907 128.892 51.6703C128.659 51.9502 127.788 52.1788 126.956 52.1788C124.998 52.1788 124.687 51.4073 124.687 46.5425C124.687 41.2764 123.459 38.9812 120.974 39.6029C119.176 40.0524 118.696 41.4691 118.486 46.9471C118.304 51.6641 118.242 51.9858 117.517 51.9858C116.791 51.9858 116.729 51.6641 116.548 46.9471C116.396 43.0206 116.203 41.6799 115.67 40.8717C114.223 38.6758 111.513 39.3195 110.755 42.0394C110.532 42.8375 110.349 45.1095 110.348 47.0881C110.345 51.4965 110.042 52.1788 108.084 52.1788C105.933 52.1788 105.694 51.7298 105.694 47.6746C105.694 44.3577 105.758 44.0639 106.567 43.6395C108.328 42.7159 108.382 42.1487 106.857 40.5949C105.814 39.5315 105.694 39.16 105.694 36.9734ZM7.45516 39.4307C-3.4192 39.4207 -2.56375 38.536 11.1181 35.6408C12.0774 35.4377 12.9542 35.2531 13.0666 35.2304C13.7507 35.0921 14.9941 36.5247 14.9941 37.4506C14.9941 39.3261 14.5724 39.4369 7.45516 39.4307ZM132.517 38.9731C131.782 38.241 131.961 36.4548 132.83 35.8482C133.637 35.2852 134.985 35.3867 139.223 36.3312C146.25 37.8974 147.741 38.4507 146.702 39.1067C145.87 39.6326 133.058 39.5118 132.517 38.9731ZM31.7136 37.9866C33.4555 37.5367 33.5284 36.8259 31.9016 36.149C30.2721 35.4705 29.2275 35.4543 27.4267 36.0795C25.6278 36.7042 25.5654 37.249 27.2236 37.8464C27.9868 38.1213 28.7054 38.5916 28.8209 38.8913C29.0949 39.6029 29.9682 39.5917 30.245 38.8731C30.3644 38.5631 31.0252 38.1642 31.7136 37.9866ZM120.23 37.8286C121.467 37.6047 121.128 36.5822 119.648 36.0795C117.662 35.4049 116.696 35.4756 114.706 36.4409C113.55 37.0023 113.606 37.3657 114.9 37.6858C115.486 37.8306 116.358 38.314 116.838 38.76L117.71 39.5712L118.582 38.77C119.062 38.3294 119.803 37.9059 120.23 37.8286ZM44.1504 46.4046C44.0911 43.3349 44.1291 40.5984 44.2353 40.323C44.3411 40.0477 44.7822 39.8226 45.2156 39.8226C45.9741 39.8226 46.0028 40.0481 46.0028 46.0278V52.2325L45.1307 52.1093C44.278 51.9885 44.2562 51.861 44.1504 46.4046ZM48.4141 46.4046C48.3548 43.3349 48.3928 40.5984 48.499 40.323C48.6048 40.0477 49.0459 39.8226 49.4793 39.8226C50.2378 39.8226 50.2665 40.0481 50.2665 46.0278V52.2325L49.3944 52.1093C48.5416 51.9885 48.5199 51.861 48.4141 46.4046ZM52.6782 46.6714C52.6127 43.4426 52.7321 41.0563 52.9825 40.5899C53.355 39.896 53.8003 39.8226 57.6311 39.8226C61.4618 39.8226 61.9072 39.896 62.2796 40.5899C62.53 41.0563 62.6494 43.4426 62.5839 46.6714C62.4789 51.8514 62.4541 51.9889 61.604 52.1093C60.7424 52.231 60.7319 52.1781 60.7319 47.7399C60.7319 45.2686 60.5513 42.9109 60.3308 42.5001C60.0032 41.8907 59.5067 41.7533 57.6311 41.7533C55.7554 41.7533 55.2589 41.8907 54.9314 42.5001C54.7108 42.9109 54.5302 45.2686 54.5302 47.7399C54.5302 52.1781 54.5197 52.231 53.6581 52.1093C52.808 51.9889 52.7832 51.8514 52.6782 46.6714ZM64.6937 46.4046C64.6344 43.3349 64.6724 40.5984 64.7786 40.323C64.8844 40.0477 65.3255 39.8226 65.7588 39.8226C66.5174 39.8226 66.546 40.0481 66.546 46.0278V52.2325L65.6739 52.1093C64.8212 51.9885 64.7995 51.861 64.6937 46.4046ZM68.5701 46.6714C68.5046 43.4426 68.624 41.0563 68.8744 40.5899C69.2469 39.896 69.6923 39.8226 73.523 39.8226C77.3537 39.8226 77.7991 39.896 78.1716 40.5899C78.422 41.0563 78.5414 43.4426 78.4759 46.6714C78.3708 51.8514 78.346 51.9889 77.496 52.1093C76.632 52.2313 76.6239 52.1885 76.6239 47.4564C76.6239 44.2562 76.4704 42.5271 76.1587 42.2166C75.9029 41.9618 74.6881 41.7533 73.459 41.7533C71.6466 41.7533 71.1489 41.8942 70.8233 42.5001C70.6028 42.9109 70.4221 45.2686 70.4221 47.7399C70.4221 52.1781 70.4117 52.231 69.55 52.1093C68.7 51.9889 68.6752 51.8514 68.5701 46.6714ZM80.5 52.2325V46.0007V39.7689L81.3721 39.8921C82.2337 40.0141 82.2442 40.0879 82.2442 46.0007C82.2442 51.9136 82.2337 51.9873 81.3721 52.1093L80.5 52.2325ZM84.4621 46.6714C84.3966 43.4426 84.516 41.0563 84.7664 40.5899C85.1388 39.896 85.5842 39.8226 89.4149 39.8226C93.2457 39.8226 93.691 39.896 94.0635 40.5899C94.3139 41.0563 94.4333 43.4426 94.3678 46.6714C94.2628 51.8514 94.238 51.9889 93.3879 52.1093C92.5239 52.2313 92.5158 52.1885 92.5158 47.4564C92.5158 44.2562 92.3623 42.5271 92.0507 42.2166C91.7949 41.9618 90.5801 41.7533 89.351 41.7533C87.5385 41.7533 87.0408 41.8942 86.7152 42.5001C86.4947 42.9109 86.3141 45.2686 86.3141 47.7399C86.3141 52.1781 86.3036 52.231 85.442 52.1093C84.5919 51.9889 84.5671 51.8514 84.4621 46.6714ZM96.7795 52.2325V46.0007V39.7689L97.6516 39.8921C98.5133 40.0141 98.5237 40.0879 98.5237 46.0007C98.5237 51.9136 98.5133 51.9873 97.6516 52.1093L96.7795 52.2325ZM101.043 52.2325V46.0007V39.7689L101.915 39.8921C102.777 40.0141 102.787 40.0879 102.787 46.0007C102.787 51.9136 102.777 51.9873 101.915 52.1093L101.043 52.2325ZM1.04024 47.0993C1.04024 43.8125 1.14528 43.1932 1.81546 42.5255C2.81975 41.5251 4.21669 41.5421 5.14695 42.5661C5.76906 43.2511 5.88534 43.9847 5.88534 47.2309C5.88534 50.598 5.79077 51.1517 5.133 51.6309C4.12599 52.3642 2.61858 52.3236 1.74918 51.5398C1.15381 51.0031 1.04024 50.2918 1.04024 47.0993ZM9.95523 47.0993C9.95523 43.8125 10.0603 43.1932 10.7304 42.5255C11.8123 41.4478 13.2255 41.5479 14.1906 42.7707C14.855 43.6117 14.993 44.3307 14.9883 46.9217C14.9813 50.7853 14.4763 51.9406 12.7204 52.1093C10.4223 52.3302 9.95523 51.4838 9.95523 47.0993ZM132.135 46.7166C132.222 44.0797 132.401 43.2071 132.984 42.5657C133.915 41.5421 135.311 41.5251 136.316 42.5255C136.986 43.1932 137.091 43.8125 137.091 47.0993C137.091 51.4838 136.624 52.3302 134.326 52.1093C132.463 51.9306 132 50.7903 132.135 46.7166ZM141.354 47.2726C141.354 43.9928 141.484 43.0233 141.996 42.4595C142.781 41.595 143.998 41.554 145.144 42.3545C145.938 42.9082 146.006 43.2627 146.006 46.861C146.006 51.1424 145.574 52.1788 143.788 52.1788C141.576 52.1788 141.354 51.7317 141.354 47.2726ZM1.50537 57.8936C0.820076 57.2109 0.939848 55.7505 1.71855 55.2988C2.09298 55.0814 4.95315 54.8999 8.10518 54.8933C13.7302 54.8817 13.8224 54.8953 14.4313 55.8212C14.912 56.5518 14.9538 56.9379 14.6205 57.5588C14.2147 58.3137 13.8612 58.3569 8.08114 58.3569C3.84536 58.3569 1.82786 58.2148 1.50537 57.8936ZM17.7764 57.0788C17.7078 56.4819 17.8597 55.7432 18.1144 55.4378C18.4973 54.9779 20.4679 54.8818 29.4992 54.8818C41.2344 54.8818 41.3515 54.9014 41.3515 56.8823C41.3515 57.6754 41.1236 58.0113 40.4794 58.1681C39.9995 58.2851 34.7234 58.3318 28.7542 58.2724L17.9012 58.1639L17.7764 57.0788ZM44.4384 57.5588C44.1051 56.9379 44.1469 56.5518 44.6276 55.8212L45.2454 54.8818H73.4718C101.225 54.8818 101.71 54.8949 102.401 55.6556C102.982 56.295 103.028 56.5969 102.663 57.3931L102.223 58.3569H73.5451C44.9539 58.3569 44.866 58.3546 44.4384 57.5588ZM106.16 57.8936C105.474 57.2109 105.594 55.7505 106.373 55.2988C106.788 55.0578 111.222 54.9007 117.798 54.8933L128.546 54.8818L129.163 55.8212C129.644 56.5518 129.686 56.9379 129.353 57.5588C128.934 58.3372 128.648 58.3569 117.774 58.3569C109.619 58.3569 106.5 58.2326 106.16 57.8936ZM132.426 57.5588C132.092 56.9379 132.134 56.5518 132.615 55.8212C133.222 54.8972 133.326 54.8818 138.87 54.8818C144.861 54.8818 146.006 55.1501 146.006 56.5556C146.006 58.2083 145.425 58.3569 138.965 58.3569C133.185 58.3569 132.831 58.3137 132.426 57.5588ZM1.71855 61.7387C2.09182 61.4093 2.74572 61.0548 3.17208 60.9513C4.626 60.5984 11.308 60.6768 12.7038 61.0633C13.5953 61.3101 14.2569 61.8016 14.5449 62.4306C14.8453 63.0878 14.9941 66.4607 14.9941 72.6148C14.9941 82.1928 15.1379 83.0485 16.6512 82.4701C17.5977 82.1083 17.6965 81.073 17.702 71.4487C17.707 62.6777 17.738 62.3105 18.5241 61.6024C19.2834 60.9181 20.054 60.8668 29.5306 60.8668C39.0073 60.8668 39.7774 60.9181 40.536 61.6024C41.3228 62.3121 41.3515 62.6716 41.3515 71.8576C41.3515 82.1222 41.5147 83.0512 43.2221 82.5114C44.0256 82.2573 44.0648 82.0291 44.0648 77.6183C44.0648 71.3147 44.5958 70.327 47.985 70.327C49.9273 70.327 51.7413 69.5602 52.9798 68.2164C54.3387 66.741 55.781 66.0796 57.6373 66.0796C59.597 66.0796 60.418 66.4912 62.7502 68.6435C63.9258 69.7281 64.9313 70.327 65.577 70.327C66.2228 70.327 67.2282 69.7281 68.4039 68.6435C70.7376 66.49 71.5567 66.0796 73.523 66.0796C75.4893 66.0796 76.3084 66.49 78.6421 68.6435C79.7057 69.625 80.8418 70.327 81.3662 70.327C82.3954 70.327 83.8566 69.4099 84.8947 68.1129C87.1188 65.3339 91.4557 65.383 94.0662 68.2164C95.338 69.5968 97.1291 70.327 99.2435 70.327C100.352 70.327 101.28 70.5873 101.872 71.0641C102.739 71.763 102.794 72.0758 102.914 77.0326C103.03 81.8399 103.103 82.2836 103.805 82.5056C105.585 83.0682 105.694 82.4627 105.694 72.0773C105.694 62.6665 105.722 62.3132 106.51 61.6024C107.269 60.9181 108.04 60.8668 117.546 60.8668C127.663 60.8668 127.776 60.8757 128.649 61.7456C129.515 62.6075 129.535 62.8148 129.648 72.4264C129.744 80.5657 129.859 82.265 130.326 82.4438C131.056 82.723 132.051 82.3376 132.056 81.7731C132.231 63.9276 132.194 62.6853 132.802 62.0508C132.895 61.954 133.002 61.8714 133.128 61.746C133.959 60.9189 134.317 60.8668 139.191 60.8668C142.3 60.8668 144 60.6821 144.926 61.4345C146.206 62.4749 146.006 65.307 146.006 72.8967C146.006 82.9408 145.968 83.4933 145.231 84.2277C144.461 84.9942 143.939 85 73.5963 85C2.8213 85 2.73603 84.9992 1.88871 84.2127C1.05574 83.44 1.04024 83.2311 1.04024 72.8816C1.04024 63.3257 1.10381 62.282 1.71855 61.7387ZM44.1973 64.7242C43.9597 62.9515 45.0152 61.2213 46.4951 60.9571C48.1649 60.659 100.857 60.8703 101.475 61.1776C103.165 62.0171 103.462 65.2498 101.984 66.7217C101.103 67.6001 100.747 67.6951 98.9075 67.5434C97.1915 67.4017 96.557 67.1275 95.2764 65.9749C93.0895 64.0068 91.4313 63.24 89.4149 63.2639C87.0439 63.2925 85.123 64.1655 83.29 66.0467C82.445 66.9144 81.6267 67.6241 81.4717 67.6241C81.3166 67.6241 80.2519 66.7696 79.1049 65.7255C77.6138 64.3682 76.5212 63.7211 75.2711 63.4554C72.4699 62.8604 70.376 63.5091 67.941 65.7255C66.7941 66.7696 65.7061 67.6241 65.5228 67.6241C65.3394 67.6241 64.7177 67.0352 64.1417 66.3159C62.7413 64.5675 60.0052 63.2874 57.6683 63.2874C55.5 63.2874 54.6302 63.6778 52.0526 65.8089C50.5037 67.0893 49.7925 67.4067 48.1722 67.5407C45.6443 67.7492 44.4931 66.9337 44.1973 64.7242ZM25.3193 68.0102C28.4403 68.0102 28.848 67.3897 26.9852 65.4749C26.2755 64.7455 25.5375 64.1489 25.3448 64.1489C25.1522 64.1489 24.4006 64.7405 23.6746 65.4637C21.7629 67.3681 22.1773 68.0102 25.3193 68.0102ZM33.8466 68.0102C36.9677 68.0102 37.3754 67.3897 35.5126 65.4749C34.8029 64.7455 34.0649 64.1489 33.8722 64.1489C33.6796 64.1489 32.928 64.7405 32.202 65.4637C30.2903 67.3681 30.7047 68.0102 33.8466 68.0102ZM113.306 68.0102C116.427 68.0102 116.835 67.3897 114.972 65.4749C114.263 64.7455 113.489 64.1489 113.253 64.1489C113.017 64.1489 112.26 64.7277 111.572 65.4355C109.719 67.3399 110.17 68.0102 113.306 68.0102ZM121.727 68.0102C124.869 68.0102 125.283 67.3681 123.371 65.4637C122.645 64.7405 121.894 64.1489 121.701 64.1489C121.509 64.1489 120.771 64.7455 120.061 65.4749C118.198 67.3897 118.606 68.0102 121.727 68.0102ZM11.1181 70.9182C11.1181 68.3083 11.0103 67.8677 10.1665 67.0275C8.90791 65.7734 6.91367 65.7486 5.75898 66.9731C5.02989 67.7465 4.91632 68.3102 4.91632 71.1607C4.91632 74.8301 5.2923 75.5182 7.54276 75.9665C8.55868 76.1688 8.95714 76.0143 9.93973 75.0355C11.0464 73.9331 11.1181 73.6825 11.1181 70.9182ZM142.137 72.0646C142.232 68.1546 142.156 67.6503 141.354 66.8518C140.362 65.8629 138.244 65.8444 137.042 66.814C136.249 67.453 136.112 67.9531 135.989 70.6645C135.849 73.7238 135.869 73.803 137.066 74.9949C138.096 76.0217 138.477 76.1711 139.528 75.9618C141.488 75.571 142.073 74.6972 142.137 72.0646ZM62.6638 77.2527C62.6564 73.0709 61.9052 71.2085 59.6028 69.6629C57.9625 68.5616 57.3008 68.5597 55.6822 69.6513C53.4685 71.1444 52.5922 73.3597 52.5922 77.4639C52.5922 80.6653 52.6782 81.0846 53.4891 81.8438C54.2651 82.5701 54.8318 82.6832 57.6853 82.6832C60.6327 82.6832 61.0742 82.5878 61.8273 81.7897C62.5707 81.0012 62.6692 80.4668 62.6638 77.2527ZM78.5557 77.2527C78.5483 73.0709 77.7972 71.2085 75.4948 69.6629C74.7734 69.1786 73.9912 68.7894 73.7563 68.7975C72.4396 68.8443 70.6977 70.0899 69.6516 71.7337C68.5616 73.4454 68.4841 73.8142 68.4841 77.2855C68.4841 80.6734 68.5639 81.0788 69.381 81.8438C70.157 82.5701 70.7237 82.6832 73.5773 82.6832C76.5246 82.6832 76.9661 82.5878 77.7192 81.7897C78.4627 81.0012 78.5611 80.4668 78.5557 77.2527ZM94.4477 77.2527C94.4403 73.0709 93.6891 71.2085 91.3867 69.6629C90.6654 69.1786 89.7781 68.7825 89.4149 68.7825C88.2975 68.7825 86.1773 70.4633 85.2606 72.0762C84.526 73.3674 84.3877 74.1922 84.3822 77.3067C84.3764 80.6765 84.4555 81.0784 85.273 81.8438C86.049 82.5701 86.6156 82.6832 89.4692 82.6832C92.4166 82.6832 92.8581 82.5878 93.6112 81.7897C94.3546 81.0012 94.4531 80.4668 94.4477 77.2527ZM28.1728 75.2915C28.1728 71.0433 28.1186 70.7189 27.3112 70.1559C26.8375 69.8254 25.9169 69.5547 25.2658 69.5547C24.6146 69.5547 23.694 69.8254 23.2204 70.1559C22.413 70.7189 22.3587 71.0433 22.3587 75.2915C22.3587 78.3033 22.5149 79.9814 22.8238 80.2892C23.0796 80.544 24.1785 80.7526 25.2658 80.7526C26.353 80.7526 27.4519 80.544 27.7077 80.2892C28.0166 79.9814 28.1728 78.3033 28.1728 75.2915ZM36.7002 75.2915C36.7002 71.0433 36.6459 70.7189 35.8385 70.1559C35.3649 69.8254 34.4443 69.5547 33.7931 69.5547C33.142 69.5547 32.2214 69.8254 31.7477 70.1559C30.9404 70.7189 30.8861 71.0433 30.8861 75.2915C30.8861 78.3033 31.0423 79.9814 31.3512 80.2892C31.607 80.544 32.7059 80.7526 33.7931 80.7526C34.8804 80.7526 35.9793 80.544 36.2351 80.2892C36.544 79.9814 36.7002 78.3033 36.7002 75.2915ZM116.269 75.0787C116.265 71.1777 116.171 70.5178 115.556 70.0702C115.167 69.7868 114.124 69.5547 113.239 69.5547C110.687 69.5547 110.346 70.2096 110.346 75.1127C110.346 80.3834 110.534 80.7526 113.219 80.7526C116.119 80.7526 116.274 80.4637 116.269 75.0787ZM124.687 75.0899C124.687 70.8031 124.616 70.3162 123.938 69.9544C123.525 69.7347 122.506 69.5547 121.672 69.5547C119.226 69.5547 118.873 70.2548 118.873 75.1127C118.873 80.3718 119.065 80.7526 121.716 80.7526C122.839 80.7526 123.966 80.544 124.222 80.2892C124.533 79.9791 124.687 78.2585 124.687 75.0899ZM49.0579 77.3017C50.456 76.5565 50.4696 74.9166 49.0835 74.1775C48.137 73.6728 48.0544 73.689 47.1943 74.5459C45.8218 75.9132 47.3695 78.2018 49.0579 77.3017ZM66.3344 77.1295C67.3938 76.4298 67.5376 75.4525 66.7139 74.5459C65.8976 73.6473 65.7887 73.6396 64.6944 74.4034C63.596 75.1695 63.5929 76.2939 64.6871 77.0573C65.4146 77.565 65.6584 77.5758 66.3344 77.1295ZM82.2264 77.1295C83.2857 76.4298 83.4295 75.4525 82.6058 74.5459C81.7895 73.6473 81.6806 73.6396 80.5864 74.4034C79.4879 75.1695 79.4848 76.2939 80.579 77.0573C81.3066 77.565 81.5504 77.5758 82.2264 77.1295ZM100.656 75.7328C100.656 75.5205 100.307 74.9992 99.8804 74.5744C99.454 74.1497 98.9307 73.8022 98.7175 73.8022C98.5044 73.8022 97.9811 74.1497 97.5547 74.5744C97.1283 74.9992 96.7795 75.5205 96.7795 75.7328C96.7795 75.9452 97.1283 76.4665 97.5547 76.8912C97.9811 77.316 98.5044 77.6635 98.7175 77.6635C98.9307 77.6635 99.454 77.316 99.8804 76.8912C100.307 76.4665 100.656 75.9452 100.656 75.7328Z" fill="#FF4605"/>
</svg>
